<svg xmlns="http://www.w3.org/2000/svg" xmlns:xlink="http://www.w3.org/1999/xlink" viewBox="0 0 1730.11 338.86"><defs><linearGradient id="무제_그라디언트_17" x1="63.73" y1="303.86" x2="220.23" y2="303.86" gradientUnits="userSpaceOnUse"><stop offset="0" stop-color="#006837"/><stop offset="1" stop-color="#120331"/></linearGradient><linearGradient id="무제_그라디언트_5" x1="181.59" y1="167.54" x2="364.4" y2="167.54" gradientUnits="userSpaceOnUse"><stop offset="0" stop-color="#006837"/><stop offset="0.31" stop-color="#006537"/><stop offset="0.49" stop-color="#025d36"/><stop offset="0.64" stop-color="#044f36"/><stop offset="0.77" stop-color="#083b34"/><stop offset="0.89" stop-color="#0d2133"/><stop offset="1" stop-color="#120331"/></linearGradient><linearGradient id="무제_그라디언트_15" x1="141.23" y1="35" x2="300.68" y2="35" gradientUnits="userSpaceOnUse"><stop offset="0" stop-color="#006837"/><stop offset="0.32" stop-color="#006637"/><stop offset="0.5" stop-color="#025d36"/><stop offset="0.65" stop-color="#045036"/><stop offset="0.78" stop-color="#083c34"/><stop offset="0.89" stop-color="#0c2333"/><stop offset="1" stop-color="#120431"/><stop offset="1" stop-color="#120331"/></linearGradient><linearGradient id="무제_그라디언트_5-2" x1="0" y1="172.38" x2="184.65" y2="172.38" xlink:href="#무제_그라디언트_5"/></defs><g id="레이어_2" data-name="레이어 2"><g id="레이어_1-2" data-name="레이어 1"><path d="M181.59,269.33a121.9,121.9,0,0,0,38.64,13.32h-.46c-25.81,27.32-55.9,55.7-88.37,56.2h-.92c-18.52,0-36.12-8.62-53.83-26.33-6.18-6.18-13.73-15-12.86-24a14.35,14.35,0,0,1,1.08-4.27c6.62-15.68,37.65-16,96.54-15.18C168.05,269.2,174.78,269.3,181.59,269.33Z" style="fill:url(#무제_그라디언트_17)"/><path d="M311.81,59.4c25.27,48.5,43.3,92.77,49.85,127.2,5.34,27.87,3.12,49.28-8.88,61.28-16.88,16.88-43.84,25.59-72.89,30.11-19.75,3.08-40.48,4.21-59.66,4.66a121.9,121.9,0,0,1-38.64-13.32c.31,0,.63,0,.94,0,72.71-29.68,105.92-109.1,119.59-155.94,5.38-18.44,7.52-41.88,5.86-61Z" style="fill:url(#무제_그라디언트_5)"/><path d="M300.61,50.32a14.51,14.51,0,0,1-1.07,4.25c-6.62,15.68-37.67,16-96.54,15.18-6.05-.07-12.19-.15-18.35-.2a122.34,122.34,0,0,0-43.42-13.26c1.13,0,2.26-.08,3.39-.09C170.45,28.9,200.54.52,233,0l.9,0c18.51,0,36.14,8.62,53.83,26.33C293.92,32.51,301.48,41.33,300.61,50.32Z" style="fill:url(#무제_그라디언트_15)"/><path d="M184.65,69.55l-2.77,0C109.17,99.19,76,178.61,62.27,225.45a155.71,155.71,0,0,0-6.19,43.38q0,5.94.46,11.86l.8,7.78q-3.17-5.91-6.16-11.74C29,233.74,12.49,194.18,4.82,162-3,129.39-1.74,104.35,11.61,91,31,71.6,63.61,63,97.43,59.16c14.7-1.71,29.64-2.48,43.8-2.87A122.34,122.34,0,0,1,184.65,69.55Z" style="fill:url(#무제_그라디언트_5-2)"/><path d="M557.42,109a10,10,0,0,0-7.89-3.79h-70A33.42,33.42,0,0,0,460.35,111a54.1,54.1,0,0,0-14.66,15.12,74,74,0,0,0-9.27,20.66,84.12,84.12,0,0,0-3.18,22.62,88.47,88.47,0,0,0,3.05,22.49,77.52,77.52,0,0,0,8.78,20.82,52,52,0,0,0,13.76,15.11A30.2,30.2,0,0,0,477,233.63h54a25.58,25.58,0,0,0,11.61-2.72,30.83,30.83,0,0,0,9.57-7.51,34.52,34.52,0,0,0,6.37-11.31,42.49,42.49,0,0,0,2.26-13.86v-6.6a42.49,42.49,0,0,0-2.26-13.86,34.41,34.41,0,0,0-6.37-11.31,31,31,0,0,0-9.57-7.51,25.64,25.64,0,0,0-11.61-2.72h-37A10,10,0,0,0,486,160a15,15,0,0,0,0,18.86,10,10,0,0,0,7.89,3.79h36a7.84,7.84,0,0,1,6.79,3.82,15,15,0,0,1,2.39,8.45,13.88,13.88,0,0,1-2.69,8.5c-1.86,2.5-4,3.77-6.49,3.77H485.24c-6.24,0-11.37-1.33-15.24-3.95a30,30,0,0,1-9.13-9.52,36.05,36.05,0,0,1-4.54-12.24,62.12,62.12,0,0,1,0-24.1,36.05,36.05,0,0,1,4.54-12.24,30,30,0,0,1,9.13-9.52c3.88-2.62,9-3.95,15.24-3.95h64.29a10,10,0,0,0,7.89-3.79,15,15,0,0,0,0-18.85Z" style="fill:#120331"/><path d="M604.63,109.05a10.11,10.11,0,0,0-7.77-3.8A10,10,0,0,0,589,109a13.81,13.81,0,0,0-3.33,9.42v76.47a41.13,41.13,0,0,0,10.16,27.41,34.85,34.85,0,0,0,10.87,8.26,29.72,29.72,0,0,0,13.17,3h82.1a10,10,0,0,0,7.88-3.79,15,15,0,0,0,0-18.85,10,10,0,0,0-7.88-3.79H619.06a10.14,10.14,0,0,1-7.72-3.69,12.44,12.44,0,0,1-3.27-8.58V118.46A13.59,13.59,0,0,0,604.63,109.05Z" style="fill:#120331"/><path d="M856.18,126.89a55.39,55.39,0,0,0-13.78-15.13,33.2,33.2,0,0,0-18.21-6.51H784.38A33.45,33.45,0,0,0,765.16,111a53.93,53.93,0,0,0-14.65,15.12,73.64,73.64,0,0,0-9.28,20.66,82,82,0,0,0-.12,44.8A75.63,75.63,0,0,0,749.88,212a55,55,0,0,0,13.77,15.12,33.07,33.07,0,0,0,18.21,6.51h39.82a33.4,33.4,0,0,0,19.21-5.79,54.07,54.07,0,0,0,14.66-15.11,74,74,0,0,0,9.27-20.67,82.11,82.11,0,0,0,.13-44.8A76.2,76.2,0,0,0,856.18,126.89Zm-11,54.6a36.08,36.08,0,0,1-4.54,12.24,29.63,29.63,0,0,1-9.27,9.53c-4,2.62-9,3.94-15.11,3.94H789.8c-6.24,0-11.37-1.33-15.25-3.95a30.09,30.09,0,0,1-9.13-9.52,36,36,0,0,1-4.53-12.24,62.12,62.12,0,0,1,0-24.1,36,36,0,0,1,4.53-12.24,30.19,30.19,0,0,1,9.13-9.52c3.89-2.62,9-3.95,15.25-3.95h26.45c6.06,0,11.14,1.33,15.11,3.94a29.83,29.83,0,0,1,9.27,9.53,36.37,36.37,0,0,1,4.54,12.24,62.12,62.12,0,0,1,0,24.1Z" style="fill:#120331"/><path d="M1009.12,127a19.62,19.62,0,0,0,1.87-9.14,21,21,0,0,0-2.6-10.67c-2.39-4.07-5.28-4.92-7.29-4.92-3.16,0-5.88,2.14-7.85,6.19L953.78,198a34.62,34.62,0,0,1-2.63,4.76,10.39,10.39,0,0,1-1,1.29l-.5,1.4-1.16-1a5.46,5.46,0,0,1-1.49-1.67c-1.11-1.72-2.07-3.34-2.76-4.69L905.12,108.8c-1.85-4.29-4.64-6.56-8.06-6.56-2,0-4.91.85-7.29,4.92a20.93,20.93,0,0,0-2.6,10.67,21.64,21.64,0,0,0,.74,5.79,25.26,25.26,0,0,0,1.74,4.64l40.82,93.28a30.7,30.7,0,0,0,7.95,11c6.79,5.69,15.26,5.48,21.87-.47a34.6,34.6,0,0,0,8.1-11.41Z" style="fill:#120331"/><path d="M1047.1,105.25a10,10,0,0,0-7.88,3.79,13.81,13.81,0,0,0-3.33,9.42v102a13.8,13.8,0,0,0,3.33,9.42,10.1,10.1,0,0,0,15.77,0,13.81,13.81,0,0,0,3.33-9.42v-102A13.83,13.83,0,0,0,1055,109,10,10,0,0,0,1047.1,105.25Z" style="fill:#120331"/><path d="M1096.47,126.16a73.91,73.91,0,0,0-9.27,20.66,84.14,84.14,0,0,0-3.19,22.62,88,88,0,0,0,3.06,22.49,77.83,77.83,0,0,0,8.77,20.82,52.25,52.25,0,0,0,13.76,15.11,30.25,30.25,0,0,0,18.16,5.77h76.16a10,10,0,0,0,7.89-3.79,15,15,0,0,0,0-18.85,10,10,0,0,0-7.89-3.79h-68.16c-6.24,0-11.37-1.33-15.24-3.95a30,30,0,0,1-9.13-9.52,36,36,0,0,1-4.54-12.24,62.12,62.12,0,0,1,0-24.1,36.21,36.21,0,0,1,4.54-12.24,30.08,30.08,0,0,1,9.13-9.52c3.88-2.62,9-3.95,15.24-3.95h68.16a10,10,0,0,0,7.89-3.79,15,15,0,0,0,0-18.85,10,10,0,0,0-7.89-3.79h-73.58a33.4,33.4,0,0,0-19.21,5.79A54.1,54.1,0,0,0,1096.47,126.16Z" style="fill:#120331"/><path d="M1361.91,109a10,10,0,0,0-7.88-3.79h-72a33.42,33.42,0,0,0-19.21,5.79,54.1,54.1,0,0,0-14.66,15.12,73.91,73.91,0,0,0-9.27,20.66,84.12,84.12,0,0,0-3.18,22.62,88,88,0,0,0,3.06,22.49,77.32,77.32,0,0,0,8.77,20.82,52.1,52.1,0,0,0,13.76,15.11,30.22,30.22,0,0,0,18.15,5.77H1354a10,10,0,0,0,7.88-3.79,15,15,0,0,0,0-18.85,10,10,0,0,0-7.88-3.79h-66.35c-6.25,0-11.38-1.33-15.25-3.95a30,30,0,0,1-9.13-9.52,36.05,36.05,0,0,1-4.54-12.24,62.12,62.12,0,0,1,0-24.1,36.13,36.13,0,0,1,4.54-12.24,30,30,0,0,1,9.13-9.52c3.88-2.62,9-3.95,15.25-3.95H1354a10,10,0,0,0,7.88-3.79,15,15,0,0,0,0-18.85Z" style="fill:#120331"/><path d="M1343.19,156.23h-52.67a10,10,0,0,0-7.89,3.78,15,15,0,0,0,0,18.86,10,10,0,0,0,7.89,3.79h52.67a10,10,0,0,0,7.88-3.79,15,15,0,0,0,0-18.86A10,10,0,0,0,1343.19,156.23Z" style="fill:#120331"/><path d="M1563.14,107H1484a34.6,34.6,0,0,0-17.79,4.63A45.77,45.77,0,0,0,1453,123.38a53.46,53.46,0,0,0-8.26,15.85,55.94,55.94,0,0,0-2.82,17.28v62.88a12.46,12.46,0,1,0,24.92,0V155a47.26,47.26,0,0,1,1.15-7.89,21.51,21.51,0,0,1,3.29-7.48,17.55,17.55,0,0,1,6.47-5.57,23.45,23.45,0,0,1,10.83-2.17h74.58a12.46,12.46,0,1,0,0-24.91Z"/><path d="M1567,160.91a12,12,0,0,0-8.82-3.64H1491a12.46,12.46,0,1,0,0,24.92h67.17a12.47,12.47,0,0,0,8.82-21.28Z"/><path d="M1644.73,131a74.64,74.64,0,0,0-15.83-13.77,63.71,63.71,0,0,0-18.15-8.18c-.57-.18-1.08-.32-1.52-.42a8.1,8.1,0,0,0-1.57-.14,9.28,9.28,0,0,0-7.52,4,15.15,15.15,0,0,0-3,9.52,13.66,13.66,0,0,0,2.84,8.84,13.21,13.21,0,0,0,7,4.63,52.73,52.73,0,0,1,12.25,5.37,54.26,54.26,0,0,1,10.29,7.91,38.46,38.46,0,0,1,7,9.36,21.34,21.34,0,0,1,2.57,9.92,22.18,22.18,0,0,1-2.57,10.07,37.29,37.29,0,0,1-7,9.48,53.71,53.71,0,0,1-10.29,7.92,44.83,44.83,0,0,1-12.24,5.09,13.27,13.27,0,0,0-7,4.64,13.64,13.64,0,0,0-2.84,8.84,15.1,15.1,0,0,0,3,9.51,9.24,9.24,0,0,0,7.52,4,7.08,7.08,0,0,0,1.57-.15,13.9,13.9,0,0,0,1.5-.41,63.61,63.61,0,0,0,18.17-8.19,76.07,76.07,0,0,0,15.82-13.63,67,67,0,0,0,11.2-17.6,48.74,48.74,0,0,0,4.23-19.56,47.89,47.89,0,0,0-4.23-19.43A70.76,70.76,0,0,0,1644.73,131Z"/><path d="M1720.3,200.61a45.09,45.09,0,0,1-12.24-5.09,54.35,54.35,0,0,1-10.28-7.92,37,37,0,0,1-7-9.49,22.08,22.08,0,0,1-2.57-10.06,21.19,21.19,0,0,1,2.57-9.92,38,38,0,0,1,7-9.36,54.5,54.5,0,0,1,10.28-7.91,52.23,52.23,0,0,1,12.25-5.36,13.31,13.31,0,0,0,7-4.64,13.68,13.68,0,0,0,2.84-8.84,15.15,15.15,0,0,0-3-9.52,9.28,9.28,0,0,0-7.52-4,8.29,8.29,0,0,0-1.58.14c-.44.1-1,.24-1.48.41a63.66,63.66,0,0,0-18.18,8.19A74.39,74.39,0,0,0,1682.48,131a70.48,70.48,0,0,0-11.19,17.59,47.82,47.82,0,0,0-4.23,19.43,48.67,48.67,0,0,0,4.23,19.56,67,67,0,0,0,11.2,17.6,75.81,75.81,0,0,0,15.82,13.63,63.28,63.28,0,0,0,18.15,8.18,12.71,12.71,0,0,0,1.51.42,7.24,7.24,0,0,0,1.58.15,9.26,9.26,0,0,0,7.52-4,15.1,15.1,0,0,0,3-9.51,13.71,13.71,0,0,0-2.84-8.85A13.34,13.34,0,0,0,1720.3,200.61Z"/></g></g></svg>