<svg xmlns="http://www.w3.org/2000/svg" viewBox="0 0 57.75 57.75"><g id="레이어_2" data-name="레이어 2"><g id="레이어_1-2" data-name="레이어 1"><path d="M53.15,47.21l-1.77.59.69,2.05a1.76,1.76,0,0,1-1.66,2.31H45.64V54h4.77A3.61,3.61,0,0,0,54,50.41a3.74,3.74,0,0,0-.18-1.15Z" style="fill:#006536"/><path d="M18.81,49.26a2.37,2.37,0,0,0-.09.36l1.81.4c0-.05,0-.11,0-.17l.5-1.5-1.76-.59Z" style="fill:#006536"/><path d="M19.93,46l.6-1.77,1.76.59-.59,1.77Z" style="fill:#006536"/><path d="M21.11,42.47l.59-1.77,1.77.59-.59,1.77Z" style="fill:#006536"/><path d="M54.37,39.08A3.71,3.71,0,0,0,54,31.67h-.24A50.71,50.71,0,0,0,47.37,11.4a4.14,4.14,0,0,0-7.19,0,50.84,50.84,0,0,0-4.34,10A10.12,10.12,0,0,0,31.67,19V9.31a1.86,1.86,0,0,0,1.86-1.86V5.59a1.86,1.86,0,0,0-1.86-1.86H16.41L14.55,0H3.73V3.73H1.86A1.86,1.86,0,0,0,0,5.59V7.45A1.86,1.86,0,0,0,1.86,9.31V24.22A1.86,1.86,0,0,0,0,26.08v1.86a1.87,1.87,0,0,0,1.86,1.87v14.9A1.86,1.86,0,0,0,0,46.57v1.86A1.87,1.87,0,0,0,1.86,50.3H14.91s0,.07,0,.11a7.36,7.36,0,0,0,7.35,7.34H50.41a7.34,7.34,0,0,0,7-9.67Zm1.52-3.69A1.87,1.87,0,0,1,54,37.26H18.63a1.87,1.87,0,0,1,0-3.73H54a1.87,1.87,0,0,1,1.87,1.86Zm-13-20.49h1.86v1.87H42.85Zm1.86,3.73v1.86H42.85V18.63Zm1.86,13V29.81h1.86v1.86Zm-7.45-9.32H41v1.87H39.12Zm9.31,1.87H46.57V22.35h1.86Zm-3.72,0H42.85V22.35h1.86Zm0,1.86v1.86H42.85V26.08Zm-5.59,0H41v1.86H39.12ZM41,29.81v1.86H39.12V29.81Zm1.87,0h1.86v1.86H42.85Zm3.72-1.87V26.08h1.86v1.86Zm3.73-4.73a48.32,48.32,0,0,1,1.09,4.73H50.3Zm-1.87-2.72H46.57V18.63h1.86Zm-7.45,0H39.12V18.63H41Zm-3.72,7.45h-1.1a48.36,48.36,0,0,1,1.1-4.73Zm-1.4,1.87h1.4v1.86H35.65c.06-.62.12-1.25.21-1.86ZM50.3,31.67V29.81h1.4c.08.61.15,1.24.21,1.86ZM48,16.77H46.57V13.85c.5,1,1,1.93,1.42,2.92ZM44.71,11.4V13H42.85V11.4a2.08,2.08,0,0,1,1.86,0ZM41,13.85v2.92H39.57c.44-1,.91-2,1.41-2.92Zm-5.73,9.61a52,52,0,0,0-1.48,8.21H21a8.29,8.29,0,0,1-.49-2.8,8.39,8.39,0,0,1,8.38-8.38,8.28,8.28,0,0,1,6.38,3ZM5.59,1.86H13.4l.93,1.87H5.59ZM1.86,5.59H31.67V7.45H1.86ZM3.73,9.31H29.81v9.37c-.31,0-.62-.05-.94-.05a10.23,10.23,0,0,0-9.11,5.59h-16ZM1.86,26.08H19a8.86,8.86,0,0,0-.35,1.86H1.86Zm1.87,3.73h15A9.11,9.11,0,0,0,19,31.67h-.4a3.71,3.71,0,0,0-.35,7.41l-1.87,5.63H3.73ZM1.86,48.43V46.57H15.78l-.5,1.51c0,.12,0,.24-.09.35Zm48.55,7.46H22.25a5.48,5.48,0,0,1-5.48-5.48,5.42,5.42,0,0,1,.28-1.74l3.18-9.55H52.42l3.19,9.55a5.71,5.71,0,0,1,.28,1.74,5.49,5.49,0,0,1-5.48,5.48Z" style="fill:#006536"/><path d="M27,23.29H25.15c0,1.56,1.64,2.79,3.72,2.79s3.73-1.23,3.73-2.79H30.74c0,.38-.73.93-1.87.93S27,23.67,27,23.29Z" style="fill:#006536"/><rect x="38.19" y="52.16" width="1.86" height="1.86" style="fill:#006536"/><rect x="41.91" y="52.16" width="1.86" height="1.86" style="fill:#006536"/></g></g></svg>