<svg xmlns="http://www.w3.org/2000/svg" xmlns:xlink="http://www.w3.org/1999/xlink" viewBox="0 0 1695.2 1576.39"><defs><linearGradient id="무제_그라디언트_17" x1="296.45" y1="1413.57" x2="1024.53" y2="1413.57" gradientUnits="userSpaceOnUse"><stop offset="0" stop-color="#006837"/><stop offset="1" stop-color="#120331"/></linearGradient><linearGradient id="무제_그라디언트_5" x1="844.74" y1="779.39" x2="1695.2" y2="779.39" gradientUnits="userSpaceOnUse"><stop offset="0" stop-color="#006837"/><stop offset="0.31" stop-color="#006537"/><stop offset="0.49" stop-color="#025d36"/><stop offset="0.64" stop-color="#044f36"/><stop offset="0.77" stop-color="#083b34"/><stop offset="0.89" stop-color="#0d2133"/><stop offset="1" stop-color="#120331"/></linearGradient><linearGradient id="무제_그라디언트_15" x1="657.02" y1="162.82" x2="1398.78" y2="162.82" gradientUnits="userSpaceOnUse"><stop offset="0" stop-color="#006837"/><stop offset="0.32" stop-color="#006637"/><stop offset="0.5" stop-color="#025d36"/><stop offset="0.65" stop-color="#045036"/><stop offset="0.78" stop-color="#083c34"/><stop offset="0.89" stop-color="#0c2333"/><stop offset="1" stop-color="#120431"/><stop offset="1" stop-color="#120331"/></linearGradient><linearGradient id="무제_그라디언트_5-2" x1="0" y1="801.92" x2="859" y2="801.92" xlink:href="#무제_그라디언트_5"/></defs><g id="레이어_2" data-name="레이어 2"><g id="레이어_1-2" data-name="레이어 1"><path d="M844.74,1252.94a566.63,566.63,0,0,0,179.79,61.94,19.32,19.32,0,0,1-2.15.08c-120.09,127.06-260,259.11-411.11,261.43H607c-86.11,0-168-40.09-250.41-122.5-28.73-28.73-63.83-69.76-59.79-111.49a67.54,67.54,0,0,1,5-19.87c30.8-73,175.14-74.41,449.13-70.62C781.77,1252.34,813.09,1252.77,844.74,1252.94Z" style="fill:url(#무제_그라디언트_17)"/><path d="M1450.52,276.31C1568.12,502,1652,707.89,1682.44,868.07c24.86,129.64,14.54,229.25-41.29,285.08-78.54,78.54-204,119.06-339.1,140-91.88,14.36-188.31,19.61-277.52,21.68a566.63,566.63,0,0,1-179.79-61.94c1.46.08,2.93.08,4.39.08,338.25-138.06,492.74-507.54,556.32-725.44,25-85.76,35-194.8,27.26-283.67Z" style="fill:url(#무제_그라디언트_5)"/><path d="M1398.46,234.07a67,67,0,0,1-5,19.79c-30.8,72.94-175.23,74.41-449.13,70.62-28.13-.34-56.69-.69-85.34-.94a569.75,569.75,0,0,0-202-61.68c5.25-.17,10.5-.35,15.74-.43C792.94,134.46,932.9,2.41,1084,.09c1.37,0,2.84-.09,4.21-.09,86.11,0,168.09,40.09,250.42,122.5C1367.32,151.23,1402.5,192.26,1398.46,234.07Z" style="fill:url(#무제_그라디언트_15)"/><path d="M859,323.54c-4.3,0-8.6-.09-12.9-.09-338.25,138-492.74,507.45-556.4,725.35a723.39,723.39,0,0,0-28.82,201.82q0,27.6,2.15,55.14l3.7,36.21q-14.72-27.48-28.65-54.62c-103.4-200-180-384-215.66-533.69C-13.79,601.91-8.12,485.43,54,423.32c90.24-90.23,241.9-130.24,399.24-148.13,68.39-7.91,137.9-11.53,203.79-13.33A569.75,569.75,0,0,1,859,323.54Z" style="fill:url(#무제_그라디언트_5-2)"/></g></g></svg>