<svg xmlns="http://www.w3.org/2000/svg" viewBox="0 0 57.75 57.75"><g id="레이어_2" data-name="레이어 2"><g id="레이어_1-2" data-name="레이어 1"><path d="M15.83,41H.93a.93.93,0,0,0-.93.93V56.82a.93.93,0,0,0,.93.93h14.9a.94.94,0,0,0,.94-.93V41.91a.94.94,0,0,0-.94-.93ZM14.9,55.89h-13v-13h13Z" style="fill:#006536"/><path d="M36.33,41H21.42a.93.93,0,0,0-.93.93V56.82a.93.93,0,0,0,.93.93H36.33a.93.93,0,0,0,.93-.93V41.91a.93.93,0,0,0-.93-.93Zm-.94,14.91h-13v-13h13Z" style="fill:#006536"/><path d="M56.82,41H41.91a.93.93,0,0,0-.93.93V56.82a.93.93,0,0,0,.93.93H56.82a.93.93,0,0,0,.93-.93V41.91a.93.93,0,0,0-.93-.93Zm-.93,14.91h-13v-13h13Z" style="fill:#006536"/><path d="M14.84,17.7l3.27.21a10.67,10.67,0,0,0,1,2.47L17,22.85a.92.92,0,0,0,0,1.27l2.63,2.64a.94.94,0,0,0,1.28,0l2.47-2.16a11.25,11.25,0,0,0,2.46,1l.22,3.27a.93.93,0,0,0,.93.87h.93v9.31h1.87V29.81h.93a.94.94,0,0,0,.93-.87l.21-3.27a11.12,11.12,0,0,0,2.47-1l2.47,2.16a.93.93,0,0,0,1.27,0l2.64-2.64a.92.92,0,0,0,0-1.27l-2.16-2.47a11.12,11.12,0,0,0,1-2.47l3.27-.22a.92.92,0,0,0,.87-.92V13a.93.93,0,0,0-.87-.93l-3.27-.22a11.32,11.32,0,0,0-1-2.47L40.77,7a.93.93,0,0,0,0-1.27L38.09,3.05a.92.92,0,0,0-1.27,0L34.35,5.17a10.67,10.67,0,0,0-2.47-1L31.67.87A.94.94,0,0,0,30.74,0H27a.93.93,0,0,0-.93.87l-.22,3.27a10.85,10.85,0,0,0-2.47,1L20.93,3a.93.93,0,0,0-1.28,0L17,5.68A.92.92,0,0,0,17,7l2.16,2.47a10.85,10.85,0,0,0-1,2.47l-3.27.22A.93.93,0,0,0,14,13v3.73a.94.94,0,0,0,.87.93Zm1-3.79,3.08-.2a.93.93,0,0,0,.85-.74,9.4,9.4,0,0,1,1.31-3.14A.93.93,0,0,0,21,8.71L19,6.38,20.35,5l2.33,2a1,1,0,0,0,1.12.08,9.4,9.4,0,0,1,3.14-1.31.93.93,0,0,0,.74-.85l.2-3.08h2l.2,3.08a.93.93,0,0,0,.74.85A9.4,9.4,0,0,1,34,7.1,1,1,0,0,0,35.07,7l2.32-2,1.41,1.4-2,2.33a.93.93,0,0,0-.08,1.12A9.4,9.4,0,0,1,38,13a.92.92,0,0,0,.84.74l3.08.2v2l-3.08.21a1,1,0,0,0-.85.74A9.18,9.18,0,0,1,36.68,20a.93.93,0,0,0,.08,1.12l2,2.32-1.41,1.41-2.32-2A.92.92,0,0,0,34,22.71,9.18,9.18,0,0,1,30.81,24a1,1,0,0,0-.74.85l-.2,3.08h-2l-.2-3.08a1,1,0,0,0-.74-.85,9.18,9.18,0,0,1-3.14-1.3.92.92,0,0,0-1.12.08l-2.33,2L19,23.42l2-2.32A1,1,0,0,0,21.07,20a9.27,9.27,0,0,1-1.31-3.13.93.93,0,0,0-.85-.74l-3.08-.21Z" style="fill:#006536"/><path d="M28.87,22.35a7.45,7.45,0,1,0-7.45-7.45,7.46,7.46,0,0,0,7.45,7.45Zm0-13a5.59,5.59,0,1,1-5.58,5.59,5.59,5.59,0,0,1,5.58-5.59Z" style="fill:#006536"/><path d="M9.31,35.39H20.49a.92.92,0,0,0,.93-.93V28.87H19.56v4.66H8.38a.93.93,0,0,0-.93.93v4.66H9.31Z" style="fill:#006536"/><path d="M48.43,39.12H50.3V34.46a.93.93,0,0,0-.93-.93H38.19V28.87H36.33v5.59a.92.92,0,0,0,.93.93H48.43Z" style="fill:#006536"/></g></g></svg>