<?xml version="1.0" encoding="utf-8"?>
<!-- Generator: Adobe Illustrator 24.1.2, SVG Export Plug-In . SVG Version: 6.00 Build 0)  -->
<svg version="1.1" id="레이어_1" xmlns="http://www.w3.org/2000/svg" xmlns:xlink="http://www.w3.org/1999/xlink" x="0px"
	 y="0px" viewBox="0 0 100 100" style="enable-background:new 0 0 100 100;" xml:space="preserve">
<style type="text/css">
	.st0{clip-path:url(#SVGID_2_);}
	.st1{clip-path:url(#SVGID_4_);fill:#180087;}
	.st2{clip-path:url(#SVGID_4_);fill:#FFFFFF;}
	.st3{clip-path:url(#SVGID_4_);fill:#EA0020;}
	.st4{clip-path:url(#SVGID_6_);}
	.st5{clip-path:url(#SVGID_8_);fill:#C6001E;}
	.st6{clip-path:url(#SVGID_8_);fill:#FFFFFF;}
	.st7{clip-path:url(#SVGID_10_);}
	.st8{clip-path:url(#SVGID_12_);}
	.st9{clip-path:url(#SVGID_14_);}
	.st10{clip-path:url(#SVGID_16_);}
	.st11{clip-path:url(#SVGID_18_);}
	.st12{clip-path:url(#SVGID_20_);}
	.st13{clip-path:url(#SVGID_22_);}
	.st14{clip-path:url(#SVGID_24_);}
	.st15{clip-path:url(#SVGID_26_);}
	.st16{fill:none;stroke:#E0E0E0;stroke-width:0.25;stroke-miterlimit:10;}
</style>
<g>
	<defs>
		<circle id="SVGID_1_" cx="50" cy="50" r="12.7"/>
	</defs>
	<clipPath id="SVGID_2_">
		<use xlink:href="#SVGID_1_"  style="overflow:visible;"/>
	</clipPath>
	<g id="AUSTRALIA_1_" class="st0">
		<g>
			<g>
				<defs>
					<rect id="SVGID_3_" x="37.3" y="37.3" width="43.6" height="25.4"/>
				</defs>
				<clipPath id="SVGID_4_">
					<use xlink:href="#SVGID_3_"  style="overflow:visible;"/>
				</clipPath>
				<rect x="37.3" y="37.3" class="st1" width="43.6" height="25.4"/>
				<polygon class="st2" points="48.7,52.9 49.4,54.9 51.4,54.2 50.2,56 52.1,57.1 50,57.3 50.2,59.4 48.7,57.8 47.3,59.4 
					47.6,57.3 45.4,57.1 47.3,56 46.1,54.2 48.1,54.9 				"/>
				<polygon class="st2" points="71.7,56.6 72,57.6 73,57.2 72.4,58.1 73.3,58.6 72.3,58.7 72.4,59.7 71.7,58.9 71,59.7 71.1,58.7 
					70.1,58.6 71,58.1 70.4,57.2 71.4,57.6 				"/>
				<polygon class="st2" points="66,47.5 66.3,48.5 67.2,48.1 66.7,49 67.6,49.5 66.5,49.6 66.7,50.6 66,49.9 65.2,50.6 65.4,49.6 
					64.4,49.5 65.2,49 64.7,48.1 65.6,48.5 				"/>
				<polygon class="st2" points="71.7,41.3 72,42.3 73,41.9 72.4,42.8 73.3,43.3 72.3,43.4 72.4,44.4 71.7,43.7 71,44.4 71.1,43.4 
					70.1,43.3 71,42.8 70.4,41.9 71.4,42.3 				"/>
				<polygon class="st2" points="76.8,46 77.1,47 78.1,46.6 77.5,47.4 78.4,48 77.4,48.1 77.5,49.1 76.8,48.3 76.1,49.1 76.2,48.1 
					75.2,48 76.1,47.4 75.5,46.6 76.5,47 				"/>
				<polygon class="st2" points="74,50.6 74.2,51.2 74.9,51.2 74.4,51.7 74.5,52.3 74,52 73.4,52.3 73.6,51.7 73.1,51.2 73.7,51.2 
									"/>
				<polygon class="st2" points="46.8,37.3 46.8,41.1 37.3,41.1 37.3,44.9 46.8,44.9 46.8,48.8 50.7,48.8 50.7,44.9 60.2,44.9 
					60.2,41.1 50.7,41.1 50.7,37.3 				"/>
				<polygon class="st2" points="37.3,37.3 37.3,38.6 57.7,48.8 60.2,48.8 60.2,47.5 39.8,37.3 				"/>
				<polygon class="st2" points="57.7,37.3 37.3,47.5 37.3,48.8 39.8,48.8 60.2,38.6 60.2,37.3 				"/>
				<polygon class="st3" points="47.6,37.3 47.6,41.9 37.3,41.9 37.3,44.2 47.6,44.2 47.6,48.8 49.9,48.8 49.9,44.2 60.2,44.2 
					60.2,41.9 49.9,41.9 49.9,37.3 				"/>
				<path class="st3" d="M37.3,37.3v0.9l5.9,3h1.7L37.3,37.3z M58.5,37.3l-7.6,3.8h1.7l7.6-3.8H58.5z"/>
				<path class="st3" d="M44.9,44.9l-7.6,3.8H39l7.6-3.8H44.9z M52.6,44.9l7.6,3.8v-0.9l-5.9-3H52.6z"/>
			</g>
		</g>
	</g>
</g>
</svg>
