<svg xmlns="http://www.w3.org/2000/svg" xmlns:xlink="http://www.w3.org/1999/xlink" viewBox="0 0 129.8 28.69"><defs><clipPath id="clip-path"><rect y="0.55" width="25.79" height="28.13" style="fill:none"/></clipPath></defs><g id="레이어_2" data-name="레이어 2"><g id="레이어_1-2" data-name="레이어 1"><path d="M32.86.6h1.76c2.14,0,3.3,1.25,3.3,3.47s-1.16,3.52-3.27,3.52H32.86Zm1.68,6.27c1.65,0,2.46-1,2.46-2.8s-.81-2.75-2.46-2.75h-.79V6.87Z" style="fill:#fff"/><path d="M38.94,5a2.42,2.42,0,1,1,4.81,0,2.42,2.42,0,1,1-4.81,0Zm3.91,0c0-1.2-.61-2-1.5-2s-1.5.81-1.5,2,.6,2,1.5,2S42.85,6.2,42.85,5Z" style="fill:#fff"/><path d="M44.46,2.41h.88l.78,3c.1.49.21,1,.3,1.45h0c.11-.49.22-1,.35-1.45l.8-3h.85l.81,3c.13.49.24,1,.36,1.45h0c.12-.49.21-1,.33-1.45l.76-3h.82L50.2,7.59H49.15L48.39,4.8c-.13-.49-.22-1-.35-1.49h0c-.11.52-.21,1-.35,1.51l-.72,2.77h-1Z" style="fill:#fff"/><path d="M52.72,2.41h.72l.07.75h0a2.48,2.48,0,0,1,1.74-.88c1.09,0,1.58.7,1.58,2V7.59H56V4.43c0-1-.3-1.39-1-1.39-.53,0-.89.27-1.42.79V7.59h-.87Z" style="fill:#fff"/><path d="M58.55,6.56V0h.87V6.62c0,.27.11.37.25.37l.18,0,.12.67a1.33,1.33,0,0,1-.5.07C58.82,7.71,58.55,7.3,58.55,6.56Z" style="fill:#fff"/><path d="M60.88,5a2.42,2.42,0,1,1,4.8,0,2.42,2.42,0,1,1-4.8,0Zm3.91,0c0-1.2-.61-2-1.51-2s-1.5.81-1.5,2,.6,2,1.5,2S64.79,6.2,64.79,5Z" style="fill:#fff"/><path d="M66.57,6.25c0-1.13,1-1.69,3.18-1.94,0-.67-.21-1.31-1.06-1.31a2.85,2.85,0,0,0-1.56.56L66.79,3a3.86,3.86,0,0,1,2-.68c1.26,0,1.79.85,1.79,2.13V7.59h-.71L69.83,7h0a2.76,2.76,0,0,1-1.71.74A1.4,1.4,0,0,1,66.57,6.25Zm3.18.08V4.88c-1.74.21-2.33.64-2.33,1.31s.4.83.91.83A2.09,2.09,0,0,0,69.75,6.33Z" style="fill:#fff"/><path d="M71.9,5a2.45,2.45,0,0,1,2.24-2.73,2.12,2.12,0,0,1,1.46.61l0-.9V0h.87V7.59h-.71L75.63,7h0A2.3,2.3,0,0,1,74,7.71C72.74,7.71,71.9,6.73,71.9,5Zm3.65,1.26V3.56A1.84,1.84,0,0,0,74.29,3c-.84,0-1.49.8-1.49,2s.51,2,1.43,2A1.78,1.78,0,0,0,75.55,6.27Z" style="fill:#fff"/><path d="M79.93,5a2.42,2.42,0,1,1,4.81,0,2.42,2.42,0,1,1-4.81,0Zm3.91,0c0-1.2-.61-2-1.51-2s-1.49.81-1.49,2,.6,2,1.49,2S83.84,6.2,83.84,5Z" style="fill:#fff"/><path d="M86.1,2.41h.71l.08.75h0a2.46,2.46,0,0,1,1.74-.88c1.08,0,1.58.7,1.58,2V7.59h-.87V4.43c0-1-.3-1.39-1-1.39A2,2,0,0,0,87,3.83V7.59H86.1Z" style="fill:#fff"/><path d="M94.21,6V3.12h-.77V2.46l.81,0L94.36,1h.72V2.41h1.4v.71h-1.4V6c0,.64.2,1,.8,1a2,2,0,0,0,.59-.13l.18.64a3.15,3.15,0,0,1-1,.19C94.59,7.71,94.21,7,94.21,6Z" style="fill:#fff"/><path d="M97.66,0h.86V2.08l0,1.07a2.41,2.41,0,0,1,1.71-.87c1.09,0,1.59.7,1.59,2V7.59h-.87V4.43c0-1-.3-1.39-1-1.39-.53,0-.89.27-1.42.79V7.59h-.86Z" style="fill:#fff"/><path d="M103.05,5a2.51,2.51,0,0,1,2.34-2.73c1.32,0,2.06,1,2.06,2.43a3.37,3.37,0,0,1,0,.5h-3.49A1.72,1.72,0,0,0,105.64,7a2.26,2.26,0,0,0,1.3-.41l.31.57a3.05,3.05,0,0,1-1.72.53A2.47,2.47,0,0,1,103.05,5Zm3.64-.42c0-1-.48-1.62-1.29-1.62a1.6,1.6,0,0,0-1.49,1.62Z" style="fill:#fff"/><path d="M32.9,17.66c0-4.16,2.56-6.66,5.94-6.66a5.07,5.07,0,0,1,3.8,1.62L41.55,13.9a3.48,3.48,0,0,0-2.64-1.14c-2.37,0-3.95,1.83-3.95,4.83s1.4,4.89,4,4.89a3.15,3.15,0,0,0,2-.62v-3H38.48V17.21h4.35v5.53a5.74,5.74,0,0,1-4,1.5C35.38,24.24,32.9,21.84,32.9,17.66Z" style="fill:#fff"/><path d="M44.89,19.26c0-3.19,2.14-5,4.49-5s4.5,1.84,4.5,5-2.14,5-4.5,5S44.89,22.41,44.89,19.26Zm6.94,0c0-2-.94-3.38-2.45-3.38S47,17.23,47,19.26s.93,3.35,2.42,3.35S51.83,21.27,51.83,19.26Z" style="fill:#fff"/><path d="M55.54,19.26c0-3.19,2.13-5,4.49-5s4.49,1.84,4.49,5-2.13,5-4.49,5S55.54,22.41,55.54,19.26Zm6.94,0c0-2-.94-3.38-2.45-3.38s-2.43,1.35-2.43,3.38.94,3.35,2.43,3.35S62.48,21.27,62.48,19.26Z" style="fill:#fff"/><path d="M66.17,25.78a2.52,2.52,0,0,1,1.38-2.08v-.09A1.76,1.76,0,0,1,66.69,22a2.37,2.37,0,0,1,1-1.77v-.07a3.25,3.25,0,0,1-1.24-2.53,3.44,3.44,0,0,1,3.69-3.43,4,4,0,0,1,1.39.24H75V16H73.14a2.63,2.63,0,0,1,.62,1.76A3.25,3.25,0,0,1,70.19,21a3.37,3.37,0,0,1-1.34-.29,1.26,1.26,0,0,0-.52,1c0,.58.39.94,1.6.94h1.75c2.26,0,3.44.69,3.44,2.32,0,1.84-2,3.33-5,3.33C67.83,28.29,66.17,27.44,66.17,25.78Zm7-.5c0-.8-.62-1-1.79-1H70a6.52,6.52,0,0,1-1.28-.14,1.7,1.7,0,0,0-.81,1.38c0,.94,1,1.5,2.55,1.5S73.19,26.16,73.19,25.28ZM72,17.66a1.81,1.81,0,1,0-3.6,0,1.82,1.82,0,1,0,3.6,0Z" style="fill:#fff"/><path d="M76.88,21.77V10.19h2V21.88c0,.53.24.73.48.73a1.19,1.19,0,0,0,.33,0l.26,1.51a3.08,3.08,0,0,1-1.07.16C77.42,24.24,76.88,23.32,76.88,21.77Z" style="fill:#fff"/><path d="M81.37,19.26c0-3.1,2.12-5,4.35-5,2.54,0,3.89,1.82,3.89,4.53a5.18,5.18,0,0,1-.09,1H83.33a2.89,2.89,0,0,0,3,2.92A4,4,0,0,0,88.55,22l.69,1.27a5.75,5.75,0,0,1-3.22,1C83.44,24.24,81.37,22.4,81.37,19.26Zm6.52-.87c0-1.65-.74-2.6-2.13-2.6a2.59,2.59,0,0,0-2.45,2.6Z" style="fill:#fff"/><path d="M95.92,11.25h3.86c2.85,0,4.88,1,4.88,3.85s-2,4.07-4.81,4.07H97.93V24h-2Zm3.74,6.31c2,0,3-.78,3-2.46s-1.06-2.24-3.09-2.24H97.93v4.7Z" style="fill:#fff"/><path d="M107,21.77V10.19h2V21.88c0,.53.24.73.48.73a1.19,1.19,0,0,0,.33,0l.26,1.51a3.08,3.08,0,0,1-1.07.16C107.5,24.24,107,23.32,107,21.77Z" style="fill:#fff"/><path d="M111.57,21.48c0-2.05,1.74-3.11,5.71-3.54,0-1.11-.42-2.08-1.82-2.08a5.26,5.26,0,0,0-2.76,1L112,15.48a7.28,7.28,0,0,1,3.85-1.25c2.38,0,3.47,1.51,3.47,4V24h-1.63l-.17-1.09h0a4.78,4.78,0,0,1-3,1.32A2.64,2.64,0,0,1,111.57,21.48Zm5.71.07V19.21c-2.83.34-3.78,1.05-3.78,2.13s.64,1.32,1.49,1.32A3.37,3.37,0,0,0,117.28,21.55Z" style="fill:#fff"/><path d="M126.29,24.58c-.74,2.05-1.75,3.42-3.76,3.42a3.47,3.47,0,0,1-1.2-.19l.39-1.56a2.63,2.63,0,0,0,.69.14c1,0,1.65-.77,2-1.79l.19-.66-3.78-9.47h2l1.77,4.91c.28.85.57,1.8.87,2.69h.08l.75-2.69,1.52-4.91h2Z" style="fill:#fff"/><path d="M25.79,14.62a2.38,2.38,0,0,1-1.21,2.05l-6.1,3.38-5.15-5.43,5.15-5.44,6.1,3.38a2.38,2.38,0,0,1,1.21,2.06Z" style="fill:#ffc107"/><g style="clip-path:url(#clip-path)"><path d="M13.33,14.62.67,28A2.32,2.32,0,0,1,0,26.34V2.9A2.28,2.28,0,0,1,.67,1.27Z" style="fill:#03a9f4"/><path d="M13.33,14.62l5.15,5.43C3,28.52,2.4,29.79.67,28Z" style="fill:#f44336"/><path d="M18.48,9.18l-5.15,5.44L.67,1.27A2.32,2.32,0,0,1,3.48.84Z" style="fill:#4caf50"/></g></g></g></svg>