<svg xmlns="http://www.w3.org/2000/svg" viewBox="0 0 115.58 32.99"><g id="레이어_2" data-name="레이어 2"><g id="레이어_1-2" data-name="레이어 1"><path d="M35.19,5H37c2.19,0,3.37,1.27,3.37,3.54S39.17,12.12,37,12.12H35.19Zm1.71,6.39c1.68,0,2.51-1.05,2.51-2.85s-.83-2.81-2.51-2.81h-.81v5.66Z" style="fill:#fff"/><path d="M41.39,9.48a2.47,2.47,0,1,1,4.91,0,2.47,2.47,0,1,1-4.91,0Zm4,0c0-1.21-.62-2-1.53-2s-1.53.83-1.53,2,.61,2,1.53,2S45.38,10.7,45.38,9.48Z" style="fill:#fff"/><path d="M47,6.84h.9l.79,3.05c.11.51.21,1,.31,1.48h0c.11-.5.22-1,.36-1.48l.82-3.05h.86l.83,3.05c.12.51.24,1,.37,1.48h0c.11-.5.21-1,.33-1.48l.78-3.05h.83l-1.42,5.28H51.8L51,9.27c-.13-.5-.23-1-.36-1.52h-.05c-.11.53-.22,1-.36,1.54l-.73,2.83H48.48Z" style="fill:#fff"/><path d="M55.45,6.84h.73l.08.75h0a2.58,2.58,0,0,1,1.78-.89c1.1,0,1.61.72,1.61,2.07v3.35h-.88V8.89c0-1-.31-1.41-1-1.41a2,2,0,0,0-1.45.8v3.84h-.88Z" style="fill:#fff"/><path d="M61.39,11.07V4.37h.89v6.75c0,.28.11.38.25.38l.18,0,.13.69a1.66,1.66,0,0,1-.52.07C61.66,12.24,61.39,11.82,61.39,11.07Z" style="fill:#fff"/><path d="M63.76,9.48a2.47,2.47,0,1,1,4.91,0,2.47,2.47,0,1,1-4.91,0Zm4,0c0-1.21-.62-2-1.54-2s-1.52.83-1.52,2,.61,2,1.52,2S67.75,10.7,67.75,9.48Z" style="fill:#fff"/><path d="M69.57,10.75c0-1.15,1-1.73,3.25-2,0-.68-.23-1.33-1.09-1.33A3,3,0,0,0,70.14,8l-.35-.61a4,4,0,0,1,2.08-.69c1.29,0,1.83.86,1.83,2.17v3.25H73l-.07-.64h0a2.83,2.83,0,0,1-1.75.76A1.43,1.43,0,0,1,69.57,10.75Zm3.25.08V9.35c-1.78.22-2.38.66-2.38,1.34s.4.84.93.84A2.15,2.15,0,0,0,72.82,10.83Z" style="fill:#fff"/><path d="M75,9.48A2.5,2.5,0,0,1,77.29,6.7a2.16,2.16,0,0,1,1.49.62l0-.91v-2h.89v7.75H78.9l-.09-.63h0a2.35,2.35,0,0,1-1.6.75C75.86,12.24,75,11.24,75,9.48Zm3.72,1.29V8a1.83,1.83,0,0,0-1.28-.55c-.86,0-1.53.82-1.53,2s.53,2,1.46,2A1.8,1.8,0,0,0,78.73,10.77Z" style="fill:#fff"/><path d="M83.2,9.48a2.47,2.47,0,1,1,4.9,0,2.47,2.47,0,1,1-4.9,0Zm4,0c0-1.21-.62-2-1.53-2s-1.53.83-1.53,2,.61,2,1.53,2S87.18,10.7,87.18,9.48Z" style="fill:#fff"/><path d="M89.49,6.84h.73l.08.75h0A2.58,2.58,0,0,1,92.1,6.7c1.1,0,1.61.72,1.61,2.07v3.35h-.89V8.89c0-1-.3-1.41-1-1.41a2,2,0,0,0-1.45.8v3.84h-.88Z" style="fill:#fff"/><path d="M97.76,10.48V7.55H97V6.88l.82,0,.11-1.48h.74V6.84h1.43v.71H98.65v3c0,.65.2,1,.82,1a1.85,1.85,0,0,0,.6-.13l.17.66a3.21,3.21,0,0,1-1,.19C98.14,12.24,97.76,11.54,97.76,10.48Z" style="fill:#fff"/><path d="M101.28,4.37h.88V6.49l0,1.09a2.5,2.5,0,0,1,1.75-.88c1.11,0,1.62.72,1.62,2.07v3.35h-.89V8.89c0-1-.3-1.41-1-1.41a2,2,0,0,0-1.45.8v3.84h-.88Z" style="fill:#fff"/><path d="M106.78,9.48a2.56,2.56,0,0,1,2.38-2.78c1.35,0,2.1,1,2.1,2.48,0,.19,0,.38,0,.51h-3.56a1.74,1.74,0,0,0,1.75,1.84,2.3,2.3,0,0,0,1.32-.41l.32.58a3.16,3.16,0,0,1-1.75.54A2.52,2.52,0,0,1,106.78,9.48Zm3.71-.43c0-1.07-.49-1.64-1.32-1.64a1.61,1.61,0,0,0-1.51,1.64Z" style="fill:#fff"/><path d="M42,24.32H37.42L36.3,28H34.22l4.31-13H40.9l4.32,13H43Zm-.5-1.61L40.94,21c-.44-1.42-.83-2.87-1.24-4.34h-.07c-.37,1.49-.78,2.92-1.2,4.34l-.53,1.75Z" style="fill:#fff"/><path d="M46.75,18.3h1.67l.16,1.07h.05a4.92,4.92,0,0,1,3-1.31c2.47,0,3.85,2,3.85,5,0,3.34-2,5.25-4.19,5.25a4,4,0,0,1-2.56-1.1l.05,1.67V32h-2ZM53.37,23c0-2-.66-3.29-2.28-3.29a3.41,3.41,0,0,0-2.32,1.19V25.7a3.31,3.31,0,0,0,2.12.88C52.31,26.58,53.37,25.33,53.37,23Z" style="fill:#fff"/><path d="M57.89,18.3h1.67l.16,1.07h.05a4.92,4.92,0,0,1,3-1.31c2.47,0,3.85,2,3.85,5,0,3.34-2,5.25-4.19,5.25a4,4,0,0,1-2.56-1.1l0,1.67V32h-2ZM64.51,23c0-2-.66-3.29-2.28-3.29a3.41,3.41,0,0,0-2.32,1.19V25.7a3.31,3.31,0,0,0,2.12.88C63.45,26.58,64.51,25.33,64.51,23Z" style="fill:#fff"/><path d="M72.27,26.35l1.2-1.41a5.07,5.07,0,0,0,3.47,1.53c1.57,0,2.46-.74,2.46-1.83s-.89-1.56-2.09-2.09l-1.8-.78a3.74,3.74,0,0,1-2.66-3.41c0-2.05,1.81-3.59,4.28-3.59a5.56,5.56,0,0,1,4,1.64L80,17.72a4.18,4.18,0,0,0-2.87-1.17c-1.32,0-2.19.64-2.19,1.68s1,1.54,2.11,2l1.78.76c1.54.65,2.65,1.61,2.65,3.52,0,2.08-1.73,3.78-4.58,3.78A6.5,6.5,0,0,1,72.27,26.35Z" style="fill:#fff"/><path d="M83.59,24.85V19.93H82.17V18.41l1.51-.11.23-2.68h1.71V18.3h2.53v1.63H85.62v4.94c0,1.16.41,1.76,1.42,1.76a2.77,2.77,0,0,0,1-.23l.37,1.51a6.43,6.43,0,0,1-1.91.35C84.35,28.26,83.59,26.9,83.59,24.85Z" style="fill:#fff"/><path d="M89.28,23.19c0-3.26,2.18-5.13,4.58-5.13s4.58,1.87,4.58,5.13-2.17,5.07-4.58,5.07S89.28,26.4,89.28,23.19Zm7.08,0c0-2.07-1-3.45-2.5-3.45s-2.47,1.38-2.47,3.45,1,3.41,2.47,3.41S96.36,25.24,96.36,23.19Z" style="fill:#fff"/><path d="M100.83,18.3h1.66l.16,1.76h0a3.36,3.36,0,0,1,2.76-2,2.45,2.45,0,0,1,1.1.21L106.19,20a2.84,2.84,0,0,0-1-.16c-.79,0-1.75.55-2.37,2.09V28h-2Z" style="fill:#fff"/><path d="M107.18,23.19c0-3.17,2.15-5.13,4.44-5.13,2.58,0,4,1.85,4,4.61a5.53,5.53,0,0,1-.09,1h-6.32a2.94,2.94,0,0,0,3,3,4.14,4.14,0,0,0,2.32-.73l.71,1.3a5.94,5.94,0,0,1-3.29,1C109.28,28.26,107.18,26.39,107.18,23.19Zm6.65-.89c0-1.68-.76-2.65-2.18-2.65a2.63,2.63,0,0,0-2.49,2.65Z" style="fill:#fff"/><path d="M9,33c-4.91,0-9-10-9-15.16C0,9.5,6.25,7.67,8.67,7.67a10.12,10.12,0,0,1,3.26.8A7.17,7.17,0,0,0,13.8,9a5.81,5.81,0,0,0,1.34-.43,10.61,10.61,0,0,1,4-1h0a8.27,8.27,0,0,1,6.92,3.5l.51.76-.73.54a6.14,6.14,0,0,0-2.93,5,5.69,5.69,0,0,0,3.17,5.26c.46.27.93.55.93,1.17,0,.4-3.22,9.06-7.89,9.06a6.37,6.37,0,0,1-2.66-.65,5.38,5.38,0,0,0-2.37-.57,6.19,6.19,0,0,0-1.88.51A9.29,9.29,0,0,1,9,33Z" style="fill:#fff"/><path d="M19.67,0c.12,4.39-3,7.43-6.15,7.24C13,3.74,16.66,0,19.67,0Z" style="fill:#fff"/></g></g></svg>