<svg xmlns="http://www.w3.org/2000/svg" viewBox="0 0 48.77 78.04"><g id="레이어_2" data-name="레이어 2"><g id="레이어_1-2" data-name="레이어 1"><path d="M22.1,45.12a1.52,1.52,0,0,0,1.08-.45L36.9,31a1.52,1.52,0,1,0-2.16-2.15L22.1,41.44,14,33.37a1.52,1.52,0,0,0-2.15,2.15L21,44.67a1.52,1.52,0,0,0,1.08.45Z" style="fill:#0e112c"/><path d="M9.15,58.22a1.52,1.52,0,0,0,1.52,1.53H38.1a1.53,1.53,0,1,0,0-3H10.67a1.52,1.52,0,0,0-1.52,1.52Z" style="fill:#0e112c"/><path d="M39.63,67.37a1.52,1.52,0,0,0-1.53-1.52H10.67a1.52,1.52,0,0,0,0,3H38.1a1.52,1.52,0,0,0,1.53-1.52Z" style="fill:#0e112c"/><path d="M25.91,76.51A1.53,1.53,0,1,1,24.39,75a1.52,1.52,0,0,1,1.52,1.52Z" style="fill:#0e112c"/><path d="M47.25,13.72H39.63V10.67A1.52,1.52,0,0,0,38.1,9.15H32.74c0-.26,0-.51,0-.77A8.39,8.39,0,0,0,16,8.38c0,.26,0,.51,0,.77H10.67a1.52,1.52,0,0,0-1.52,1.52v3.05H1.52A1.52,1.52,0,0,0,0,15.24V76.51A1.52,1.52,0,0,0,1.52,78h16a1.53,1.53,0,0,0,0-3.05H3.05V16.77h6.1v3a1.52,1.52,0,0,0,1.52,1.53H38.1a1.52,1.52,0,0,0,1.53-1.53v-3h6.1V75H31.25a1.53,1.53,0,1,0,0,3.05h16a1.52,1.52,0,0,0,1.52-1.53V15.24A1.52,1.52,0,0,0,47.25,13.72ZM36.58,18.29H12.19v-6.1h5.73a1.53,1.53,0,0,0,1.44-2,5.13,5.13,0,0,1-.31-1.78,5.34,5.34,0,1,1,10.37,1.78,1.52,1.52,0,0,0,1.44,2h5.72Z" style="fill:#0e112c"/></g></g></svg>