<svg xmlns="http://www.w3.org/2000/svg" viewBox="0 0 77.83 77.83"><g id="레이어_2" data-name="레이어 2"><g id="레이어_1-2" data-name="레이어 1"><path d="M71.35,32.43A6.5,6.5,0,0,0,65,37.62H55.71a16.74,16.74,0,0,0-4-9.66l6.56-6.57a6.49,6.49,0,1,0-1.83-1.83l-6.57,6.56a16.74,16.74,0,0,0-9.66-4V12.84a6.49,6.49,0,1,0-2.59,0v9.28a16.89,16.89,0,0,0-9.66,4L21.4,19.56a6.49,6.49,0,1,0-1.84,1.84L26.12,28a16.77,16.77,0,0,0-4,9.66H12.84a6.49,6.49,0,1,0,0,2.59h9.28a16.87,16.87,0,0,0,4,9.66l-6.56,6.57a6.46,6.46,0,1,0,1.84,1.83L28,51.71a16.74,16.74,0,0,0,9.66,4V65a6.49,6.49,0,1,0,2.59,0V55.71a16.74,16.74,0,0,0,9.66-4l6.57,6.56a6.48,6.48,0,1,0,1.83-1.83l-6.56-6.57a16.74,16.74,0,0,0,4-9.66H65a6.49,6.49,0,1,0,6.36-7.78Zm-21.2,13a1.28,1.28,0,0,0,.42,1.72,14.49,14.49,0,0,1-3.45,3.45,1.28,1.28,0,0,0-2.22,1.28,14.2,14.2,0,0,1-4.7,1.27,1.29,1.29,0,0,0-2.57,0,14.2,14.2,0,0,1-4.7-1.27,1.28,1.28,0,0,0-.5-1.71,1.26,1.26,0,0,0-1.72.43,14.49,14.49,0,0,1-3.45-3.45A1.28,1.28,0,0,0,26,44.9a14.2,14.2,0,0,1-1.27-4.7,1.29,1.29,0,0,0,0-2.57A14.2,14.2,0,0,1,26,32.93a1.28,1.28,0,0,0,1.28-2.22,14.41,14.41,0,0,1,3.44-3.44A1.29,1.29,0,0,0,32.93,26a14.2,14.2,0,0,1,4.7-1.27,1.29,1.29,0,0,0,2.57,0A14.2,14.2,0,0,1,44.9,26a1.29,1.29,0,0,0,2.23,1.29,14.23,14.23,0,0,1,3.44,3.44,1.28,1.28,0,0,0,1.28,2.22,14.2,14.2,0,0,1,1.27,4.7,1.29,1.29,0,0,0,0,2.57,14.2,14.2,0,0,1-1.27,4.7,1.29,1.29,0,0,0-1.7.5Zm9-32.17A3.89,3.89,0,1,1,58,16a3.89,3.89,0,0,1,1.14-2.75ZM35,6.48a3.9,3.9,0,1,1,3.9,3.9A3.9,3.9,0,0,1,35,6.48ZM13.23,18.74A3.89,3.89,0,1,1,16,19.88a3.9,3.9,0,0,1-2.75-1.14ZM6.48,42.81a3.9,3.9,0,1,1,3.9-3.89,3.89,3.89,0,0,1-3.9,3.89ZM18.74,64.6a3.92,3.92,0,1,1,.8-4.23,3.89,3.89,0,0,1-.8,4.23Zm24.07,6.75a3.9,3.9,0,1,1-3.89-3.89,3.89,3.89,0,0,1,3.89,3.89ZM64.6,59.1a3.89,3.89,0,0,1,0,5.5,4,4,0,0,1-5.5,0,3.89,3.89,0,1,1,5.5-5.5Zm6.75-16.29a3.9,3.9,0,1,1,3.89-3.89,3.89,3.89,0,0,1-3.89,3.89Z" style="fill:#0e112c"/><path d="M42.81,35a1.3,1.3,0,0,0,1.29,1.3c2.5,0,1.48-5.5-3.89-6.38a1.3,1.3,0,1,0-2.59,0c-3,.48-5.19,2.58-5.19,5.08s2.23,4.6,5.19,5.09v5.13c-1.49-.37-2.6-1.33-2.6-2.43a1.3,1.3,0,0,0-1.29-1.3c-2.5,0-1.48,5.51,3.89,6.38a1.3,1.3,0,1,0,2.59,0c3-.48,5.19-2.58,5.19-5.08s-2.23-4.6-5.19-5.09V32.59c1.5.37,2.6,1.33,2.6,2.43Zm-5.19-2.43v4.86c-3.45-.84-3.45-4,0-4.86Zm2.59,12.65V40.38c3.45.84,3.45,4,0,4.86Z" style="fill:#0e112c"/></g></g></svg>