<svg xmlns="http://www.w3.org/2000/svg" viewBox="0 0 71.54 69.96"><g id="레이어_2" data-name="레이어 2"><g id="레이어_1-2" data-name="레이어 1"><path d="M69.78,16.55,69,15.79a6,6,0,0,0-8.49,0l-5.29,5.29V14.55A7.31,7.31,0,0,0,54.26,0H7.31A7.32,7.32,0,0,0,0,7.31V62.89H5.91V70H55.25V39.57L69.78,25a6,6,0,0,0,0-8.49ZM33.29,52.29,35,46.67l4,4ZM47.79,47l4.67-4.66v24.8H8.7V14.62H52.46v9.25l-4.21,4.21H12.68v2.79H45.46L41.93,34.4H12.68v2.79H39.14l-3.52,3.52H12.68v2.8H33l-1,3.52H12.68v2.79H31.11l-1.05,3.53H12.68v2.79H49.51V53.35H39.56l2.64-.79L45,49.82h4.51V47ZM13.05,2.79H54.26a4.52,4.52,0,0,1,0,9H13.05a7.28,7.28,0,0,0,0-9ZM2.79,60.09V7.31a4.52,4.52,0,1,1,4.52,4.51H5.91V60.09ZM65.36,25.51,41.55,49.32,36.25,44,60.06,20.22Zm3.39-4.71a3.19,3.19,0,0,1-.94,2.27l-.47.47L62,18.24l.47-.47a3.22,3.22,0,0,1,4.54,0l.76.76A3.16,3.16,0,0,1,68.75,20.8Z" style="fill:#0e112c"/></g></g></svg>