<svg xmlns="http://www.w3.org/2000/svg" viewBox="0 0 87.63 79.18"><g id="레이어_2" data-name="레이어 2"><g id="레이어_1-2" data-name="레이어 1"><path d="M87.63,44.87A12.6,12.6,0,0,0,75.08,32.29h0a1.47,1.47,0,0,0-1.47,1.47,1.49,1.49,0,0,0,1.47,1.48,9.64,9.64,0,0,1,9.6,9.63V56.92a9.64,9.64,0,0,1-9.63,9.63H58.89a1.46,1.46,0,0,0-1.12.51L50,76.2l-.13,0a.33.33,0,0,1-.24-.08l-.05,0,0-.17V68A1.47,1.47,0,0,0,48,66.55H45.35a9.64,9.64,0,0,1-9.63-9.63V44.87a9.64,9.64,0,0,1,9.63-9.63H59.94a1.48,1.48,0,0,0,0-3H47.87V26.8A12.59,12.59,0,0,0,35.3,14.22H12.58A12.59,12.59,0,0,0,0,26.8v12A12.59,12.59,0,0,0,11.77,51.39h.11l5.44,6.37a3.26,3.26,0,0,0,3.58.94A3.22,3.22,0,0,0,23,55.66V51.42h9.76v5.5A12.59,12.59,0,0,0,45.35,69.49h1.21v6.45a3.22,3.22,0,0,0,2.12,3A3.25,3.25,0,0,0,52.27,78l7.3-8.55H75.05A12.59,12.59,0,0,0,87.63,56.92Zm-54.85,0v3.61H21.55A1.47,1.47,0,0,0,20.08,50v5.82l-.07.1a.42.42,0,0,1-.24.1H19.7l-.15-.12L13.69,49a1.44,1.44,0,0,0-1.11-.51,9.65,9.65,0,0,1-9.64-9.64v-12a9.64,9.64,0,0,1,9.64-9.63H35.3a9.64,9.64,0,0,1,9.63,9.63v5.5h-.24A12.57,12.57,0,0,0,32.78,44.87Z" style="fill:#0e112c"/><path d="M61,61.44A1.47,1.47,0,0,0,62.48,60v-.76l.21,0a4.14,4.14,0,0,0,3.41-4.09V53.17A4.16,4.16,0,0,0,62,49H60.07a1.21,1.21,0,0,1-1.21-1.21v-2a1.21,1.21,0,0,1,1.21-1.21H62a1.21,1.21,0,0,1,1.21,1.21,1.47,1.47,0,1,0,2.94,0,4.15,4.15,0,0,0-3.41-4.09l-.21,0v-.76a1.47,1.47,0,0,0-2.94,0v.76l-.21,0a4.15,4.15,0,0,0-3.41,4.09v2A4.16,4.16,0,0,0,60.07,52H62a1.21,1.21,0,0,1,1.21,1.21v1.91A1.22,1.22,0,0,1,62,56.3H60.07a1.22,1.22,0,0,1-1.21-1.22,1.47,1.47,0,0,0-2.94,0,4.13,4.13,0,0,0,3.41,4.09l.21,0V60A1.47,1.47,0,0,0,61,61.44Z" style="fill:#0e112c"/><path d="M23.76,43.49A1.47,1.47,0,0,0,25.24,42v-.76l.2,0a4.16,4.16,0,0,0,3.42-4.09V35.22a4.16,4.16,0,0,0-4.16-4.15H22.83a1.22,1.22,0,0,1-1.22-1.22v-2a1.22,1.22,0,0,1,1.22-1.22H24.7a1.22,1.22,0,0,1,1.22,1.22,1.47,1.47,0,0,0,2.94,0,4.15,4.15,0,0,0-3.42-4.09l-.2,0V23a1.48,1.48,0,0,0-2.95,0v.76l-.2,0a4.15,4.15,0,0,0-3.42,4.09v2A4.17,4.17,0,0,0,22.83,34H24.7a1.22,1.22,0,0,1,1.22,1.21v1.92a1.22,1.22,0,0,1-1.22,1.21H22.83a1.22,1.22,0,0,1-1.22-1.21,1.47,1.47,0,0,0-2.94,0,4.16,4.16,0,0,0,3.42,4.09l.2,0V42A1.47,1.47,0,0,0,23.76,43.49Z" style="fill:#0e112c"/><path d="M68.13,32.41a1.27,1.27,0,0,0-.54-.11,1.5,1.5,0,0,0-1.38.9,1.48,1.48,0,0,0,0,1.13,1.4,1.4,0,0,0,.79.79h0a1.48,1.48,0,0,0,1.92-.79,1.49,1.49,0,0,0-.8-1.92Z" style="fill:#0e112c"/><path d="M59.74,26.64h8.77A1.47,1.47,0,0,0,70,25.17V14.1h4.74a1.47,1.47,0,0,0,1.06-2.48L65.15.46A1.48,1.48,0,0,0,64.09,0,1.45,1.45,0,0,0,63,.45L52.2,11.61a1.47,1.47,0,0,0,1.06,2.49h5V25.17A1.47,1.47,0,0,0,59.74,26.64Zm-3-15.48,7.35-7.57,7.21,7.57H68.51A1.47,1.47,0,0,0,67,12.63V23.7H61.21V12.63a1.47,1.47,0,0,0-1.47-1.47Z" style="fill:#0e112c"/></g></g></svg>