<svg xmlns="http://www.w3.org/2000/svg" viewBox="0 0 57.75 60.99"><g id="레이어_2" data-name="레이어 2"><g id="레이어_1-2" data-name="레이어 1"><path d="M56.56,58.61H53.94V20.67a3.2,3.2,0,0,0-3.2-3.2H44.9a3.21,3.21,0,0,0-3.2,3.2V58.61H35.07V37.86a3.21,3.21,0,0,0-3.21-3.2H26a3.2,3.2,0,0,0-3.2,3.2V58.61H16.19V47.86a3.21,3.21,0,0,0-3.2-3.2H7.15a3.21,3.21,0,0,0-3.21,3.2V58.61H1.19a1.19,1.19,0,0,0,0,2.38H56.56a1.19,1.19,0,1,0,0-2.38Zm-50.23,0V47.86A.82.82,0,0,1,7.15,47H13a.82.82,0,0,1,.82.82V58.61Zm18.87,0V37.86A.82.82,0,0,1,26,37h5.84a.82.82,0,0,1,.82.82V58.61Zm18.88,0V20.67a.82.82,0,0,1,.82-.82h5.84a.82.82,0,0,1,.82.82V58.61Z" style="fill:#006536"/><path d="M11.4,33.16a1.21,1.21,0,0,0,.85-.34L32.82,12.24l4.44,4.44a1.18,1.18,0,0,0,1.68,0L51.56,4.07v4a1.19,1.19,0,1,0,2.38,0V1.25a1.2,1.2,0,0,0-.34-.9A1.22,1.22,0,0,0,52.69,0H45.43a1.19,1.19,0,1,0,0,2.38h4.45L38.1,14.16,33.66,9.72a1.16,1.16,0,0,0-.84-.35,1.15,1.15,0,0,0-.84.35L10.56,31.13a1.19,1.19,0,0,0,.84,2Z" style="fill:#006536"/><circle cx="7.39" cy="36.13" r="1.19" style="fill:#006536"/></g></g></svg>