<svg xmlns="http://www.w3.org/2000/svg" viewBox="0 0 45 45"><g id="레이어_2" data-name="레이어 2"><g id="레이어_1-2" data-name="레이어 1"><path d="M40.88,35.46a22.44,22.44,0,0,0-.36-26.41l0,0s0,0,0,0A22.47,22.47,0,0,0,4.54,9l0,0,0,0a22.44,22.44,0,0,0-.34,26.41s0,0,0,.07l0,0a22.46,22.46,0,0,0,36.62,0l0,0a.11.11,0,0,1,0-.07ZM1.52,23.25H9.76a37.42,37.42,0,0,0,1,7.88A23,23,0,0,0,4.94,34,20.77,20.77,0,0,1,1.52,23.25ZM5.3,10.48a23.72,23.72,0,0,0,5.6,2.7,37.53,37.53,0,0,0-1.14,8.57H1.52A20.84,20.84,0,0,1,5.3,10.48ZM43.48,21.75H35.24a37,37,0,0,0-1.14-8.57,23.33,23.33,0,0,0,5.6-2.7,20.84,20.84,0,0,1,3.78,11.27Zm-21,13.5a.75.75,0,0,1-.75-.75V32.81a.74.74,0,0,0-.56-.72,5.28,5.28,0,0,1-3.69-3.5.65.65,0,0,1,.09-.57.68.68,0,0,1,.54-.27h.2a.72.72,0,0,1,.64.51,3.74,3.74,0,0,0,3.42,2.47l.1,0h.07a3.66,3.66,0,0,0,.81-.09,3.71,3.71,0,0,0,2.78-2.77,3.75,3.75,0,0,0-3.65-4.63,5.25,5.25,0,0,1-1.31-10.33.76.76,0,0,0,.56-.73V10.5a.75.75,0,0,1,1.5,0v1.69a.76.76,0,0,0,.56.73,5.32,5.32,0,0,1,3.7,3.49.64.64,0,0,1-.1.57.65.65,0,0,1-.53.27h-.21a.68.68,0,0,1-.63-.51,3.79,3.79,0,0,0-4.41-2.39,3.75,3.75,0,0,0,.87,7.4,5.25,5.25,0,0,1,1.31,10.34.74.74,0,0,0-.56.72V34.5a.74.74,0,0,1-.75.75Zm-4.22-12a6.68,6.68,0,0,0,4.22,1.5,2.25,2.25,0,1,1-2.12,3,2.19,2.19,0,0,0-2.05-1.51h-.2a2.17,2.17,0,0,0-1.75.89,2.12,2.12,0,0,0-.31,1.9,4.59,4.59,0,0,0,.27.7,33.52,33.52,0,0,0-4.2.94,37.15,37.15,0,0,1-.88-7.43Zm-7-1.5a36.44,36.44,0,0,1,1.05-8.12,34.64,34.64,0,0,0,4.39.94,6.69,6.69,0,0,0,.21,7.18Zm16.84,1.5h5.64a36.43,36.43,0,0,1-.88,7.43,33.52,33.52,0,0,0-4.2-.94,6.69,6.69,0,0,0-.56-6.49Zm-1.38-1.5a6.74,6.74,0,0,0-4.22-1.5,2.27,2.27,0,0,1-2-1.21,2.25,2.25,0,0,1,2.31-3.27,2.25,2.25,0,0,1,1.81,1.48,2.18,2.18,0,0,0,2.05,1.5h.21a2.17,2.17,0,0,0,1.74-.89,2.11,2.11,0,0,0,.32-1.9,7,7,0,0,0-.63-1.39,34.49,34.49,0,0,0,4.38-.94,35.86,35.86,0,0,1,1.05,8.12Zm.51-8.55a7,7,0,0,0-2.48-1.57V10.5a2.24,2.24,0,0,0-1.5-2.11V1.55c3.88.48,7.23,4.65,9,10.63a33.6,33.6,0,0,1-5.06,1ZM21.75,1.55V8.39a2.25,2.25,0,0,0-1.5,2.11v1.14a6.77,6.77,0,0,0-2.49,1.56,33.72,33.72,0,0,1-5.05-1c1.82-6,5.16-10.15,9-10.63ZM17.18,31.13a6.86,6.86,0,0,0,3.07,2.24V34.5a2.24,2.24,0,0,0,1.5,2.11v6.84c-4-.5-7.47-5-9.24-11.31a32.37,32.37,0,0,1,4.67-1Zm6.07,12.32V36.61a2.23,2.23,0,0,0,1.5-2.11V33.37a6.76,6.76,0,0,0,3.08-2.24,30.7,30.7,0,0,1,4.66,1C30.73,38.49,27.28,43,23.25,43.45Zm12-20.2h8.24A20.77,20.77,0,0,1,40.06,34a23.07,23.07,0,0,0-5.78-2.86,38.07,38.07,0,0,0,1-7.88ZM38.81,9.3a22.46,22.46,0,0,1-5.11,2.45,20.5,20.5,0,0,0-5.64-9.5A21,21,0,0,1,38.81,9.3ZM17,2.25a20.45,20.45,0,0,0-5.65,9.5A22.49,22.49,0,0,1,6.19,9.29,21,21,0,0,1,17,2.25Zm-11.14,33a21.35,21.35,0,0,1,5.3-2.64c1.26,4.42,3.31,8,5.84,10.17A21,21,0,0,1,5.81,35.22Zm22.25,7.53c2.52-2.16,4.57-5.75,5.83-10.17a21.59,21.59,0,0,1,5.31,2.64,21.05,21.05,0,0,1-11.14,7.53Z" style="fill:#006536"/></g></g></svg>