<svg xmlns="http://www.w3.org/2000/svg" viewBox="0 0 57.75 57.75"><g id="레이어_2" data-name="레이어 2"><g id="레이어_1-2" data-name="레이어 1"><path d="M51,39.46a1,1,0,0,0-1,1,6.74,6.74,0,0,0,6.74,6.74,1,1,0,0,0,1-1A6.76,6.76,0,0,0,51,39.46Zm1.09,2a4.82,4.82,0,0,1,3.6,3.6,4.81,4.81,0,0,1-3.6-3.6Z" style="fill:#006536"/><path d="M55.82,21.17a16.29,16.29,0,0,1-.64,4.55l1.85.53A18.28,18.28,0,0,0,43.52,3.34L43.1,5.22a16.47,16.47,0,0,1,12.72,16Z" style="fill:#006536"/><path d="M21.89,26.25l1.85-.53A16.38,16.38,0,0,1,34.92,5.45L34.38,3.6A18.38,18.38,0,0,0,21.17,21.17a18.18,18.18,0,0,0,.72,5.08Z" style="fill:#006536"/><path d="M52,21.17A11.88,11.88,0,0,1,51.84,23l1.91.28A14.42,14.42,0,0,0,43.59,7.34L43,9.18a12.6,12.6,0,0,1,8.93,12Z" style="fill:#006536"/><path d="M34.81,9.56l-.72-1.79A14.44,14.44,0,0,0,25.63,25.3l1.84-.55A12.52,12.52,0,0,1,34.81,9.56Z" style="fill:#006536"/><path d="M1,52h15.4v3.85H13.47v1.93H25V55.82H22.14V52h9.62a1,1,0,0,0,.91-.65L36,41.24l-.39,14.58h-2v1.93H45.24V55.82h-2l-.46-16.7a18.2,18.2,0,0,0,9.84-5.3l-1.39-1.33a16.36,16.36,0,0,1-8.5,4.69l-.05-2a14.29,14.29,0,0,0,6.83-3.74l-1.35-1.38a12.39,12.39,0,0,1-5.53,3.16l-.22-7.94,12.37,7.15a1.93,1.93,0,0,0,.94.24,2,2,0,0,0,1.6-3.17c-.46-.62-.92-1.17-1.39-1.7a.27.27,0,0,0-.07-.08,24,24,0,0,0-3.14-2.91,23.68,23.68,0,0,0-9.58-4.4,3.83,3.83,0,0,0-1.8-2.63V1.93a2,2,0,0,0-3.8-.75,19.9,19.9,0,0,0-.91,2.48,22.19,22.19,0,0,0-.9,4.19,23.72,23.72,0,0,0,1.11,10.41,3.86,3.86,0,0,0-1.28,2.86s0,.05,0,.08L25.66,27h-17a1,1,0,0,0-.91.66L.05,50.71a.94.94,0,0,0,.13.86A1,1,0,0,0,1,52ZM41.33,21.12a1.9,1.9,0,0,1-3.25,1.31,1.93,1.93,0,0,1-.4-2.07,1.9,1.9,0,0,1,3.65.76ZM21.17,50.05H17.7L19,46.2h5.67l-1.28,3.85ZM29.25,38.5l1.28-3.85H36.2L34.92,38.5Zm5,1.92L33,44.27H27.32l1.29-3.85ZM27.22,38.5H21.55l1.28-3.85H28.5Zm-.64,1.92-1.29,3.85H19.62l1.29-3.85Zm.1,5.78h5.67l-1.28,3.85H25.4ZM38.11,35.54a13.05,13.05,0,0,0,2.7,0l0,1.93a16.36,16.36,0,0,1-2.8,0Zm.45-1.89,1.81-5.43A1,1,0,0,0,39.46,27H38.34l.06-2.1,0,0a3.39,3.39,0,0,0,2.09,0l.24,8.82a12.42,12.42,0,0,1-2.2,0ZM36.42,27H36.3l.12-.12Zm1.71,1.92-1.29,3.85H31.17l1.29-3.85Zm-9,3.85H23.47l1.29-3.85h5.67Zm-7.7,0H15.77l1.29-3.85h5.67Zm-.64,1.93L19.52,38.5H13.85l1.28-3.85Zm-9,3.85H6.15l1.28-3.85H13.1Zm-.64,1.92L9.89,44.27H4.22l1.29-3.85Zm2,0h5.67l-1.29,3.85H11.92ZM17,46.2l-1.28,3.85H10l1.28-3.85Zm3.26,9.62H18.29V52h1.92Zm17.35,0L38,39.4c.48,0,1,.06,1.45.06s1,0,1.46-.06l.44,16.42ZM54.42,29l.07.09a20.57,20.57,0,0,1,1.33,1.63l0,.1L42.64,23.21a4.11,4.11,0,0,0,.39-.82,21.69,21.69,0,0,1,8.56,4A23.27,23.27,0,0,1,54.42,29ZM37.69,8.08a20.43,20.43,0,0,1,.83-3.86,20.71,20.71,0,0,1,.83-2.28h.11V17.27h0a3.72,3.72,0,0,0-.81.09,21.63,21.63,0,0,1-.93-9.28Zm-1.52,15a4.5,4.5,0,0,0,.56.74A21.87,21.87,0,0,1,33.18,27H29.51ZM9.36,28.87H15l-1.29,3.85H8.07ZM3.58,46.2H9.25L8,50.05H2.3Z" style="fill:#006536"/><path d="M19.25,7.7A6.75,6.75,0,0,0,26,1a1,1,0,0,0-1-1,6.74,6.74,0,0,0-6.73,6.74,1,1,0,0,0,1,1Zm4.69-5.65a4.84,4.84,0,0,1-3.6,3.6,4.81,4.81,0,0,1,3.6-3.6Z" style="fill:#006536"/><path d="M12.51,19.25a1,1,0,0,0,1-1,6.73,6.73,0,0,0-6.73-6.74,1,1,0,0,0-1,1,6.73,6.73,0,0,0,6.73,6.74ZM11.43,17.2a4.84,4.84,0,0,1-3.61-3.6,4.84,4.84,0,0,1,3.61,3.6Z" style="fill:#006536"/></g></g></svg>