<svg xmlns="http://www.w3.org/2000/svg" viewBox="0 0 57.75 57.75"><g id="레이어_2" data-name="레이어 2"><g id="레이어_1-2" data-name="레이어 1"><path d="M14.9,37.26h1.87v-2a3.7,3.7,0,0,0,1.5-6.39,3.69,3.69,0,0,0-1.5-6.38v-2H14.9v1.86H14V20.49H12.11v1.86H10.25v1.87h.93v9.31h-.93v1.86h1.86v1.87H14V35.39h.93Zm.93-13a1.86,1.86,0,1,1,0,3.72H13V24.22ZM13,29.81h2.79a1.86,1.86,0,1,1,0,3.72H13Z" style="fill:#006536"/><path d="M14.9,38.19v1.86A11.19,11.19,0,0,0,26.08,28.87H24.22a9.33,9.33,0,0,1-9.32,9.32Z" style="fill:#006536"/><path d="M14.9,17.7A11.18,11.18,0,0,0,3.73,28.87H5.59a9.33,9.33,0,0,1,9.31-9.31Z" style="fill:#006536"/><path d="M42.85,14a14.93,14.93,0,0,0-14,9.77,14.91,14.91,0,1,0,0,10.27,14.9,14.9,0,1,0,14-20Zm0,27.94c-1.54,0-3.19-2.59-4.05-6.75a34.79,34.79,0,0,0,4.05.23,34.74,34.74,0,0,0,4-.23c-.86,4.16-2.51,6.75-4,6.75Zm0-8.38a33.15,33.15,0,0,1-4.38-.28,34.32,34.32,0,0,1,0-8.75,34.32,34.32,0,0,1,8.75,0,34.32,34.32,0,0,1,0,8.75,33.11,33.11,0,0,1-4.37.28Zm-6.29-.61c-4.16-.86-6.75-2.51-6.75-4.05s2.59-3.18,6.75-4a35.68,35.68,0,0,0,0,8.09Zm6.29-17.09c1.53,0,3.18,2.6,4,6.76a34.21,34.21,0,0,0-8.09,0c.86-4.16,2.51-6.76,4.05-6.76Zm6.28,9c4.16.86,6.76,2.51,6.76,4s-2.6,3.19-6.76,4.05a34.21,34.21,0,0,0,0-8.09Zm6.23.41a17.48,17.48,0,0,0-6.51-2.37,17.41,17.41,0,0,0-2.37-6.51,13.07,13.07,0,0,1,8.88,8.88ZM39.21,16.36a17.48,17.48,0,0,0-2.37,6.51,17.48,17.48,0,0,0-6.51,2.37,13.07,13.07,0,0,1,8.88-8.88ZM14.9,41.91a13,13,0,1,1,13-13,13.06,13.06,0,0,1-13,13Zm15.43-9.4a17.48,17.48,0,0,0,6.51,2.37,17.48,17.48,0,0,0,2.37,6.51,13.07,13.07,0,0,1-8.88-8.88Zm16.15,8.88a17.48,17.48,0,0,0,2.37-6.51,17.41,17.41,0,0,0,6.51-2.37,13.07,13.07,0,0,1-8.88,8.88Z" style="fill:#006536"/><path d="M28.87,1.86A10.27,10.27,0,0,1,38.9,10L36,7.66,34.81,9.11l4.66,3.73a1,1,0,0,0,.58.2,1,1,0,0,0,.73-.35L44.5,8,43.05,6.87l-2.3,2.88a12.11,12.11,0,0,0-24,2.36h1.86A10.26,10.26,0,0,1,28.87,1.86Z" style="fill:#006536"/><path d="M28.87,55.89a10.27,10.27,0,0,1-10-8.14l2.92,2.34,1.17-1.45-4.66-3.73a.94.94,0,0,0-1.31.15l-3.73,4.65,1.46,1.17L17,48a12.11,12.11,0,0,0,24-2.36H39.12A10.26,10.26,0,0,1,28.87,55.89Z" style="fill:#006536"/></g></g></svg>