<svg xmlns="http://www.w3.org/2000/svg" viewBox="0 0 57.75 57.75"><g id="레이어_2" data-name="레이어 2"><g id="레이어_1-2" data-name="레이어 1"><path d="M14.9,11.18a.93.93,0,0,1,.93.93H17.7a2.81,2.81,0,0,0-2.8-2.8V7.45H13V9.31H10.25v2.8A2.79,2.79,0,0,0,13,14.9H14.9a.93.93,0,0,1,.93.93v.94H13a.94.94,0,0,1-.93-.94H10.25A2.79,2.79,0,0,0,13,18.63v1.86H14.9V18.63h2.8v-2.8A2.8,2.8,0,0,0,14.9,13H13a.93.93,0,0,1-.93-.93v-.93Z" style="fill:#006536"/><path d="M14,24.22a10.29,10.29,0,0,0,6.49-2.32l-1.18-1.44A8.38,8.38,0,0,1,7.49,8.66L6.05,7.48A10.25,10.25,0,0,0,14,24.22Z" style="fill:#006536"/><path d="M14,5.59a8.39,8.39,0,0,1,6.49,13.69l1.44,1.18A10.24,10.24,0,0,0,7.48,6.05L8.66,7.49A8.36,8.36,0,0,1,14,5.59Z" style="fill:#006536"/><path d="M43.78,52.16a8.38,8.38,0,0,1-6.49-13.69l-1.44-1.19A10.25,10.25,0,0,0,50.27,51.7l-1.18-1.44a8.38,8.38,0,0,1-5.31,1.9Z" style="fill:#006536"/><path d="M43.78,33.53a10.32,10.32,0,0,0-6.5,2.32l1.19,1.44a8.38,8.38,0,0,1,11.79,11.8l1.44,1.18a10.25,10.25,0,0,0-7.92-16.74Z" style="fill:#006536"/><path d="M46.84,38.46l-3.06,3.07-3.07-3.07-1.32,1.32,3.07,3.07H41v1.86h1.87v1.86H41v1.86h1.87V50.3h1.86V48.43h1.86V46.57H44.71V44.71h1.86V42.85H45.09l3.07-3.07Z" style="fill:#006536"/><path d="M57.75,33.32V24.43l-3.35-.89a25.68,25.68,0,0,0-3.71-8.95l1.74-3L46.15,5.31l-3,1.74a25.82,25.82,0,0,0-9-3.7L33.32,0H24.43l-.89,3.35-.41.09A14,14,0,0,0,3.44,23.13l-.09.41L0,24.43v8.89l3.35.88a25.82,25.82,0,0,0,3.7,9l-1.73,3,6.28,6.28,3-1.74a25.68,25.68,0,0,0,9,3.71l.89,3.35h8.89l.88-3.35.42-.1A13.95,13.95,0,0,0,54.3,34.62c0-.14.07-.28.1-.42ZM25.87,1.86h6L32.7,5l.58.11a23.72,23.72,0,0,1,9.31,3.85l.49.33,2.77-1.6L50.1,11.9l-1.61,2.77.34.49a23.88,23.88,0,0,1,3.85,9.3l.11.58,3.1.83v6l-3.1.82-.07.36a14.05,14.05,0,0,0-3.47-2.14,18.83,18.83,0,0,0,.12-2.05A20.53,20.53,0,0,0,28.87,8.38a18.8,18.8,0,0,0-2,.12A14.61,14.61,0,0,0,24.69,5L25,5ZM10.32,27.44a13.69,13.69,0,0,0,3.65.5h0c0,.32,0,.63,0,.93a14.93,14.93,0,0,0,14.9,14.91c.3,0,.61,0,.94,0v0a13.74,13.74,0,0,0,.5,3.65c-.51,0-1,.07-1.44.07A18.64,18.64,0,0,1,10.25,28.87c0-.45,0-.92.07-1.43ZM30,41.85a10.34,10.34,0,0,1-1.08.06,13.06,13.06,0,0,1-13-13c0-.33,0-.69.06-1.08a14,14,0,0,0,4-1.16,8.89,8.89,0,0,0-.3,2.24,9.33,9.33,0,0,0,9.31,9.32,8.91,8.91,0,0,0,2.25-.3,14.38,14.38,0,0,0-1.17,4Zm2.81-6.63A7.43,7.43,0,0,1,22.53,25,14.32,14.32,0,0,0,25,22.53,7.43,7.43,0,0,1,35.22,32.76a13.64,13.64,0,0,0-2.46,2.46ZM28.87,19.56a8.89,8.89,0,0,0-2.24.3,14,14,0,0,0,1.16-4c.39,0,.75-.06,1.08-.06a13.06,13.06,0,0,1,13,13A10.34,10.34,0,0,1,41.85,30a14.38,14.38,0,0,0-4,1.17,8.91,8.91,0,0,0,.3-2.25,9.33,9.33,0,0,0-9.32-9.31Zm0-5.59c-.3,0-.61,0-.93,0v0a13.69,13.69,0,0,0-.5-3.65c.51-.05,1-.07,1.43-.07A18.64,18.64,0,0,1,47.5,28.87c0,.46,0,.93-.07,1.44a13.74,13.74,0,0,0-3.65-.5h0c0-.33,0-.63,0-.94A14.93,14.93,0,0,0,28.87,14ZM14,1.86A12.11,12.11,0,1,1,1.86,14,12.12,12.12,0,0,1,14,1.86Zm17.91,54h-6l-.82-3.1-.59-.11a23.73,23.73,0,0,1-9.3-3.85l-.49-.34L11.9,50.1,7.65,45.85l1.6-2.77-.33-.49a23.73,23.73,0,0,1-3.85-9.3L5,32.71l-3.1-.83v-6L5,25.05,5,24.69A14.3,14.3,0,0,0,8.5,26.83a18.8,18.8,0,0,0-.12,2,20.53,20.53,0,0,0,20.49,20.5,18.83,18.83,0,0,0,2.05-.12,14.05,14.05,0,0,0,2.14,3.47l-.36.07Zm11.9,0A12.11,12.11,0,1,1,55.89,43.78,12.13,12.13,0,0,1,43.78,55.89Z" style="fill:#006536"/></g></g></svg>