<svg xmlns="http://www.w3.org/2000/svg" viewBox="0 0 41.2 41.2"><g id="레이어_2" data-name="레이어 2"><g id="레이어_1-2" data-name="레이어 1"><path d="M41.07,19.54a1.75,1.75,0,0,0,0-1.31,1.79,1.79,0,0,0-.38-.56l-5.14-5.15A1.72,1.72,0,1,0,33.12,15l2.22,2.22H25.75a1.72,1.72,0,1,0,0,3.43h9.59l-2.22,2.22a1.72,1.72,0,0,0,1.21,2.93,1.75,1.75,0,0,0,1.22-.5l5.14-5.15a1.79,1.79,0,0,0,.38-.56" style="fill:#fff"/><path d="M29.18,24a1.71,1.71,0,0,0-1.71,1.72v8.58H20.6V6.87a1.73,1.73,0,0,0-1.22-1.65l-6-1.79H27.47V12a1.72,1.72,0,0,0,3.43,0V1.72A1.72,1.72,0,0,0,29.18,0H1.72c-.07,0-.12,0-.18,0l-.23,0a1.73,1.73,0,0,0-.5.22A.61.61,0,0,0,.69.34l0,0A1.84,1.84,0,0,0,.2.92s0,.1-.05.15a1.7,1.7,0,0,0-.13.4c0,.05,0,.1,0,.15s0,.06,0,.1V36.05a1.71,1.71,0,0,0,1.38,1.68l17.17,3.44.33,0A1.73,1.73,0,0,0,20,40.81a1.71,1.71,0,0,0,.63-1.33V37.77h8.58a1.72,1.72,0,0,0,1.72-1.72V25.75A1.72,1.72,0,0,0,29.18,24" style="fill:#fff"/></g></g></svg>