<svg xmlns="http://www.w3.org/2000/svg" viewBox="0 0 35 35"><g id="레이어_2" data-name="레이어 2"><g id="레이어_1-2" data-name="레이어 1"><path d="M17.5,0A17.5,17.5,0,1,0,35,17.5,17.5,17.5,0,0,0,17.5,0Zm1.62,27.41v3.11H16.47v-3a10.05,10.05,0,0,1-5.32-2.34l1.74-2.66a7.2,7.2,0,0,0,4.44,1.83c1.88,0,2.73-.83,2.73-2.37,0-3.62-8.16-3.3-8.16-8.91a5.28,5.28,0,0,1,4.57-5.48V4.48h2.65V7.54A7.37,7.37,0,0,1,23.58,10l-2,2.26a4.81,4.81,0,0,0-3.44-1.59c-1.59,0-2.47.75-2.47,2.23,0,3.33,8.16,2.82,8.16,8.84A5.44,5.44,0,0,1,19.12,27.41Z" style="fill:#006536"/></g></g></svg>