<svg xmlns="http://www.w3.org/2000/svg" viewBox="0 0 19.84 19.84"><g id="레이어_2" data-name="레이어 2"><g id="레이어_1-2" data-name="레이어 1"><path d="M5.62,8.14a.78.78,0,0,1-1.55,0h0a.78.78,0,1,1,1.55,0Zm6.74,0h0a.77.77,0,0,0-.77-.78.78.78,0,0,0-.78.78h0a.77.77,0,0,0,.78.77A.76.76,0,0,0,12.36,8.14Zm3.38,0h0A.78.78,0,0,0,15,7.36a.77.77,0,0,0-.77.78h0a.76.76,0,0,0,.77.77A.77.77,0,0,0,15.74,8.14ZM5.62,11.51a.78.78,0,0,0-1.55,0h0a.78.78,0,1,0,1.55,0Zm-.78,2.6a.77.77,0,0,0-.77.77h0a.78.78,0,1,0,1.55,0h0A.77.77,0,0,0,4.84,14.11ZM9,8.14a.78.78,0,1,0-1.55,0h0A.78.78,0,0,0,9,8.14Zm0,3.37a.78.78,0,0,0-1.55,0h0a.78.78,0,1,0,1.55,0Zm-.77,2.6a.77.77,0,0,0-.78.77h0a.78.78,0,1,0,1.55,0H9A.77.77,0,0,0,8.22,14.11Zm11.62,1a4.69,4.69,0,1,1-4.69-4.69A4.69,4.69,0,0,1,19.84,15.15Zm-1.55,0a3.14,3.14,0,1,0-3.14,3.14A3.14,3.14,0,0,0,18.29,15.15Zm-2-.77h-.35v-.81a.78.78,0,1,0-1.55,0v1.58a.78.78,0,0,0,.77.78h1.13a.78.78,0,0,0,0-1.55Zm.46-12.83h-1V.78A.78.78,0,0,0,15,0a.77.77,0,0,0-.77.78v.77H10.66V.78a.78.78,0,1,0-1.55,0v.77H5.62V.78a.78.78,0,1,0-1.55,0v.77h-1A3.1,3.1,0,0,0,0,4.65V16.74a3.1,3.1,0,0,0,3.1,3.1H9a.77.77,0,0,0,.78-.77A.78.78,0,0,0,9,18.29H3.1a1.55,1.55,0,0,1-1.55-1.55V4.65A1.56,1.56,0,0,1,3.1,3.1h1v.78a.78.78,0,0,0,1.55,0V3.1H9.11v.78a.78.78,0,0,0,1.55,0V3.1h3.53v.78a.77.77,0,0,0,.77.77.78.78,0,0,0,.78-.77V3.1h1a1.55,1.55,0,0,1,1.55,1.55V9.07a.77.77,0,0,0,.78.77.76.76,0,0,0,.77-.77V4.65A3.1,3.1,0,0,0,16.74,1.55Z" style="fill:#fff"/></g></g></svg>