<svg xmlns="http://www.w3.org/2000/svg" viewBox="0 0 23.45 23.45"><g id="레이어_2" data-name="레이어 2"><g id="레이어_1-2" data-name="레이어 1"><path d="M11.73,23.45h0A11.73,11.73,0,0,1,0,11.73H0A11.73,11.73,0,0,1,11.73,0h0A11.73,11.73,0,0,1,23.45,11.73h0A11.72,11.72,0,0,1,11.73,23.45Z" style="fill:#fff"/><path d="M5.48,15.65A7.3,7.3,0,0,0,16.7,9.18,5.23,5.23,0,0,0,18,7.85a5.22,5.22,0,0,1-1.48.4,2.52,2.52,0,0,0,1.13-1.41A5.35,5.35,0,0,1,16,7.46,2.57,2.57,0,0,0,11.63,9.8,7.28,7.28,0,0,1,6.35,7.12a2.57,2.57,0,0,0,.79,3.42A2.55,2.55,0,0,1,6,10.22,2.56,2.56,0,0,0,8,12.77a2.51,2.51,0,0,1-1.16,0,2.56,2.56,0,0,0,2.39,1.78A5.11,5.11,0,0,1,5.48,15.65Z" style="fill:#322a80"/></g></g></svg>