<svg xmlns="http://www.w3.org/2000/svg" viewBox="0 0 23.45 23.45"><g id="레이어_2" data-name="레이어 2"><g id="레이어_1-2" data-name="레이어 1"><path d="M11.73,23.45h0A11.73,11.73,0,0,1,0,11.73H0A11.73,11.73,0,0,1,11.73,0h0A11.73,11.73,0,0,1,23.45,11.73h0A11.72,11.72,0,0,1,11.73,23.45Z" style="fill:#fff"/><path d="M13.19,11.42H8.46v1.36h3.2a3.14,3.14,0,0,1-3.11,2.66A3.72,3.72,0,1,1,11.07,9l1-.9a5.09,5.09,0,1,0-3.57,8.72A4.61,4.61,0,0,0,13.2,12Z" style="fill:#322a80"/><polygon points="20 11.48 18.05 11.48 18.05 9.52 16.8 9.52 16.8 11.48 14.84 11.48 14.84 12.72 16.8 12.72 16.8 14.68 18.05 14.68 18.05 12.72 20 12.72 20 11.48" style="fill:#322a80"/></g></g></svg>