<svg xmlns="http://www.w3.org/2000/svg" viewBox="0 0 45 45"><g id="레이어_2" data-name="레이어 2"><g id="레이어_1-2" data-name="레이어 1"><path d="M4.5,4.5h.75a.75.75,0,0,0,0-1.5H4.5a.75.75,0,0,0,0,1.5Z" style="fill:#006536"/><path d="M8.25,4.5H9A.75.75,0,0,0,9,3H8.25a.75.75,0,0,0,0,1.5Z" style="fill:#006536"/><path d="M12,4.5h.75a.75.75,0,0,0,0-1.5H12a.75.75,0,0,0,0,1.5Z" style="fill:#006536"/><path d="M15.75,4.5H36A.75.75,0,0,0,36,3H15.75a.75.75,0,0,0,0,1.5Z" style="fill:#006536"/><path d="M43.5,27h-.75V23.25a8.21,8.21,0,0,0-2.25-5.64V3.75A3.75,3.75,0,0,0,36.75,0h-33A3.75,3.75,0,0,0,0,3.75v30A3.75,3.75,0,0,0,3.75,37.5H24v2.25A5.25,5.25,0,0,0,29.25,45h10.5A5.25,5.25,0,0,0,45,39.75V28.5A1.5,1.5,0,0,0,43.5,27Zm-2.25,0H27.75V23.25a6.75,6.75,0,0,1,13.5,0ZM3.75,1.5h33A2.25,2.25,0,0,1,39,3.75V6H1.5V3.75A2.25,2.25,0,0,1,3.75,1.5ZM1.5,33.75V7.5H39v8.84a8.24,8.24,0,0,0-12.75,6.91V27H25.5A1.5,1.5,0,0,0,24,28.5V36H3.75A2.25,2.25,0,0,1,1.5,33.75ZM39.75,43.5H29.25a3.77,3.77,0,0,1-3.68-3h2.18a.75.75,0,0,0,0-1.5H25.5V37.5h2.25a.75.75,0,0,0,0-1.5H25.5V34.5h2.25a.75.75,0,0,0,0-1.5H25.5V31.5h2.25a.75.75,0,0,0,0-1.5H25.5V28.5h18V30H41.25a.75.75,0,0,0,0,1.5H43.5V33H41.25a.75.75,0,0,0,0,1.5H43.5V36H41.25a.75.75,0,0,0,0,1.5H43.5V39H41.25a.75.75,0,0,0,0,1.5h2.18A3.77,3.77,0,0,1,39.75,43.5Z" style="fill:#006536"/><path d="M34.5,32.25a2.24,2.24,0,0,0-.75,4.36v1.64a.75.75,0,0,0,1.5,0V36.61a2.24,2.24,0,0,0-.75-4.36Zm0,3a.75.75,0,1,1,.75-.75A.76.76,0,0,1,34.5,35.25Z" style="fill:#006536"/><path d="M12.75,15a.76.76,0,0,0-.75.75V18H6V12H9a.75.75,0,0,0,0-1.5H6A1.5,1.5,0,0,0,4.5,12v6A1.5,1.5,0,0,0,6,19.5h6A1.5,1.5,0,0,0,13.5,18V15.75A.76.76,0,0,0,12.75,15Z" style="fill:#006536"/><path d="M8,13.72A.75.75,0,0,0,7,14.78l1.5,1.5A.75.75,0,0,0,9,16.5H9a.79.79,0,0,0,.55-.27l3.75-4.5a.73.73,0,0,0,.12-.74.75.75,0,0,0-.57-.48.77.77,0,0,0-.71.26L9,14.64Z" style="fill:#006536"/><path d="M12.75,27.75a.76.76,0,0,0-.75.75v2.25H6v-6H9a.75.75,0,0,0,0-1.5H6a1.5,1.5,0,0,0-1.5,1.5v6A1.5,1.5,0,0,0,6,32.25h6a1.5,1.5,0,0,0,1.5-1.5V28.5A.76.76,0,0,0,12.75,27.75Z" style="fill:#006536"/><path d="M8,26.47A.75.75,0,0,0,7,27.53L8.47,29a.75.75,0,0,0,.53.22H9A.79.79,0,0,0,9.58,29l3.75-4.5a.73.73,0,0,0,.12-.74.75.75,0,0,0-.57-.48.77.77,0,0,0-.71.26L9,27.39Z" style="fill:#006536"/><path d="M16.5,12.75h6a.75.75,0,0,0,0-1.5h-6a.75.75,0,0,0,0,1.5Z" style="fill:#006536"/><path d="M16.5,16.5h9.75a.75.75,0,0,0,0-1.5H16.5a.75.75,0,0,0,0,1.5Z" style="fill:#006536"/><path d="M22.5,24h-6a.75.75,0,0,0,0,1.5h6a.75.75,0,0,0,0-1.5Z" style="fill:#006536"/><path d="M21.75,27.75H16.5a.75.75,0,0,0,0,1.5h5.25a.75.75,0,0,0,0-1.5Z" style="fill:#006536"/></g></g></svg>