<svg xmlns="http://www.w3.org/2000/svg" viewBox="0 0 23.45 23.45"><g id="레이어_2" data-name="레이어 2"><g id="레이어_1-2" data-name="레이어 1"><path d="M11.73,23.45h0A11.73,11.73,0,0,1,0,11.73H0A11.73,11.73,0,0,1,11.73,0h0A11.73,11.73,0,0,1,23.45,11.73h0A11.72,11.72,0,0,1,11.73,23.45Z" style="fill:#fff"/><path d="M11.73,6.46c1.71,0,1.92,0,2.6,0a3.87,3.87,0,0,1,1.19.22,2.19,2.19,0,0,1,1.22,1.22A3.6,3.6,0,0,1,17,9.13c0,.68,0,.88,0,2.6s0,1.92,0,2.6a3.58,3.58,0,0,1-.22,1.19,2.12,2.12,0,0,1-1.22,1.22,3.58,3.58,0,0,1-1.19.22c-.68,0-.89,0-2.6,0s-1.92,0-2.6,0a3.6,3.6,0,0,1-1.2-.22,2.19,2.19,0,0,1-1.22-1.22,3.87,3.87,0,0,1-.22-1.19c0-.68,0-.89,0-2.6s0-1.92,0-2.6a3.89,3.89,0,0,1,.22-1.2A1.92,1.92,0,0,1,7.2,7.2a1.92,1.92,0,0,1,.73-.49,3.89,3.89,0,0,1,1.2-.22c.68,0,.88,0,2.6,0m0-1.16c-1.75,0-2,0-2.65,0a4.87,4.87,0,0,0-1.56.29A3.38,3.38,0,0,0,5.63,7.52a4.87,4.87,0,0,0-.29,1.56c0,.68,0,.9,0,2.65s0,2,0,2.65a5,5,0,0,0,.29,1.56,3.27,3.27,0,0,0,.75,1.14,3,3,0,0,0,1.14.74,4.58,4.58,0,0,0,1.56.3c.68,0,.9,0,2.65,0s2,0,2.65,0a4.68,4.68,0,0,0,1.56-.3,3.27,3.27,0,0,0,1.88-1.88,4.68,4.68,0,0,0,.3-1.56c0-.69,0-.91,0-2.65s0-2,0-2.65a4.58,4.58,0,0,0-.3-1.56,3,3,0,0,0-.74-1.14,3.27,3.27,0,0,0-1.14-.75,5,5,0,0,0-1.56-.29c-.69,0-.91,0-2.65,0" style="fill:#322a80"/><path d="M11.73,8.43a3.3,3.3,0,1,0,3.3,3.3,3.29,3.29,0,0,0-3.3-3.3m0,5.44a2.15,2.15,0,1,1,2.14-2.14,2.14,2.14,0,0,1-2.14,2.14" style="fill:#322a80"/><path d="M15.93,8.29a.77.77,0,1,1-.77-.77.77.77,0,0,1,.77.77" style="fill:#322a80"/></g></g></svg>