<svg xmlns="http://www.w3.org/2000/svg" viewBox="0 0 23.45 23.45"><g id="레이어_2" data-name="레이어 2"><g id="레이어_1-2" data-name="레이어 1"><rect width="23.45" height="23.45" rx="11.73" style="fill:#fff"/><path d="M17.91,8.6a1.62,1.62,0,0,0-1.14-1.15,38.52,38.52,0,0,0-5-.27,38.66,38.66,0,0,0-5.05.27A1.63,1.63,0,0,0,5.54,8.6a17,17,0,0,0-.27,3.13,16.92,16.92,0,0,0,.27,3.12A1.63,1.63,0,0,0,6.68,16a38.66,38.66,0,0,0,5.05.27,38.52,38.52,0,0,0,5-.27,1.62,1.62,0,0,0,1.14-1.15,16.92,16.92,0,0,0,.27-3.12A17,17,0,0,0,17.91,8.6Z" style="fill:#322a80"/><polygon points="10.41 13.65 10.41 9.81 13.78 11.73 10.41 13.65" style="fill:#fff"/></g></g></svg>