<svg xmlns="http://www.w3.org/2000/svg" viewBox="0 0 45 40.63"><g id="레이어_2" data-name="레이어 2"><g id="레이어_1-2" data-name="레이어 1"><path d="M40.25,0H11.16A4.56,4.56,0,0,0,6.58,4.53L6.39,30.15H.71a.74.74,0,0,0-.71.76v3.53a6.18,6.18,0,0,0,5.83,6.15v0h24.5v-.05c.19,0,.3.05.42.05h0a6.15,6.15,0,0,0,6.12-6.19V12h7.4a.74.74,0,0,0,.71-.76V4.79A4.79,4.79,0,0,0,40.25,0ZM6.15,39.17h0a4.72,4.72,0,0,1-4.68-4.73V31.61H24.6v2.81a6.15,6.15,0,0,0,1.8,4.38,2.6,2.6,0,0,1,.38.37Zm29.29-4.73a4.71,4.71,0,0,1-4.67,4.73h0a4.74,4.74,0,0,1-4.7-4.75V30.91a.76.76,0,0,0-.73-.76H7.85L8,4.53a3.1,3.1,0,0,1,3.13-3.07H36.81a5,5,0,0,0-1.37,3.35ZM43.54,4.8v5.77H36.89V4.81a3.37,3.37,0,0,1,3.34-3.35h0A3.32,3.32,0,0,1,43.54,4.8Z" style="fill:#006536"/><path d="M17.11,17.94l3.76,2.57a.71.71,0,0,0,.81,0l3.75-2.57a5.68,5.68,0,0,0,2.26-4.32V8.42a.69.69,0,0,0-.39-.65L21.58,5A.7.7,0,0,0,21,5l-5.71,2.8a.71.71,0,0,0-.39.66v5.2a5.68,5.68,0,0,0,2.26,4.32Zm-.8-9.07,5-2.45,5,2.46v4.74a4.18,4.18,0,0,1-1.62,3.11L21.26,19l-3.33-2.29a4.18,4.18,0,0,1-1.62-3.11Z" style="fill:#006536"/><path d="M20,14.72a.7.7,0,0,0,.51.22h0a.72.72,0,0,0,.51-.22l2.9-2.9a.73.73,0,0,0-1-1l-2.38,2.38-.95-1a.73.73,0,0,0-1,1Z" style="fill:#006536"/><path d="M30.33,22.59H12.84a.73.73,0,0,0,0,1.46H30.33a.73.73,0,0,0,0-1.46Z" style="fill:#006536"/><path d="M30.33,26H12.84a.73.73,0,0,0,0,1.46H30.33a.73.73,0,1,0,0-1.46Z" style="fill:#006536"/></g></g></svg>