<svg xmlns="http://www.w3.org/2000/svg" viewBox="0 0 45 45"><g id="레이어_2" data-name="레이어 2"><g id="레이어_1-2" data-name="레이어 1"><path d="M39.75,6a.76.76,0,0,0,.75-.75V3.75A3.75,3.75,0,0,0,36.75,0h-27A3.75,3.75,0,0,0,6,3.75V37.5H7.5V3.75A2.25,2.25,0,0,1,9.75,1.5h24A3.73,3.73,0,0,0,33,3.75v37.5a2.25,2.25,0,0,1-4.5,0v-1.5a.76.76,0,0,0-.75-.75H.75a.76.76,0,0,0-.75.75v1.5A3.75,3.75,0,0,0,3.75,45h27a3.75,3.75,0,0,0,3.75-3.75V6Zm-36,37.5A2.25,2.25,0,0,1,1.5,41.25V40.5H27v.75a3.73,3.73,0,0,0,.75,2.25Zm33-42A2.25,2.25,0,0,1,39,3.75V4.5H34.5V3.75A2.25,2.25,0,0,1,36.75,1.5Z" style="fill:#006536"/><path d="M15.75,8.25a1.9,1.9,0,0,0,.76,1.55A2,2,0,0,0,18.7,12a2,2,0,0,0,3.1,0A2,2,0,0,0,24,9.8a2,2,0,0,0,0-3.1A2,2,0,0,0,21.8,4.51a2,2,0,0,0-3.1,0A2,2,0,0,0,16.51,6.7a1.9,1.9,0,0,0-.76,1.55Zm1.85-.44a.74.74,0,0,0,.53-.44.77.77,0,0,0-.06-.69.44.44,0,0,1,.61-.61.74.74,0,0,0,1.13-.47.44.44,0,0,1,.87,0,.76.76,0,0,0,1.14.47.44.44,0,0,1,.61.61.77.77,0,0,0-.06.69.74.74,0,0,0,.53.44.45.45,0,0,1,0,.88.74.74,0,0,0-.53.44.77.77,0,0,0,.06.69.44.44,0,0,1-.61.61.76.76,0,0,0-1.14.47.44.44,0,0,1-.87,0,.74.74,0,0,0-1.13-.47.44.44,0,0,1-.61-.61.77.77,0,0,0,.06-.69.74.74,0,0,0-.53-.44.45.45,0,0,1,0-.88Z" style="fill:#006536"/><rect x="16.5" y="17.25" width="7.5" height="1.5" style="fill:#006536"/><rect x="18.75" y="14.25" width="7.5" height="1.5" style="fill:#006536"/><rect x="14.25" y="14.25" width="3" height="1.5" style="fill:#006536"/><rect x="12.75" y="21" width="18" height="1.5" style="fill:#006536"/><rect x="9.75" y="21" width="1.5" height="1.5" style="fill:#006536"/><rect x="12.75" y="24" width="12" height="1.5" style="fill:#006536"/><rect x="26.25" y="24" width="4.5" height="1.5" style="fill:#006536"/><rect x="12.75" y="27" width="18" height="1.5" style="fill:#006536"/><rect x="9.75" y="27" width="1.5" height="1.5" style="fill:#006536"/><rect x="12.75" y="30" width="4.5" height="1.5" style="fill:#006536"/><rect x="18.75" y="30" width="12" height="1.5" style="fill:#006536"/><rect x="12.75" y="33" width="12" height="1.5" style="fill:#006536"/><rect x="9.75" y="33" width="1.5" height="1.5" style="fill:#006536"/><rect x="12.75" y="36" width="18" height="1.5" style="fill:#006536"/><rect x="26.25" y="33" width="4.5" height="1.5" style="fill:#006536"/><path d="M42.75,12H42a3,3,0,0,0-6,0V36a.73.73,0,0,0,.08.33h0l2.25,4.5a.74.74,0,0,0,1.34,0l2.25-4.5h0A.73.73,0,0,0,42,36V13.5h.75a.76.76,0,0,1,.75.75V22.5H45V14.25A2.25,2.25,0,0,0,42.75,12ZM39,10.5A1.5,1.5,0,0,1,40.5,12h-3A1.5,1.5,0,0,1,39,10.5Zm1.5,24.75h-3V24h3Zm0-12.75h-3V21h3ZM39,38.82l-1-2.07H40ZM40.5,19.5h-3v-6h3Z" style="fill:#006536"/></g></g></svg>