<svg xmlns="http://www.w3.org/2000/svg" viewBox="0 0 31.72 34.04"><g id="레이어_2" data-name="레이어 2"><g id="레이어_1-2" data-name="레이어 1"><path d="M30.48,34H1.24A1.25,1.25,0,0,1,0,32.8C0,24,5.63,19.17,15.86,19.17S31.72,24,31.72,32.8A1.24,1.24,0,0,1,30.48,34ZM2.53,31.56H29.19c-.49-6.57-5-9.9-13.33-9.9S3,25,2.53,31.56Z" style="fill:#006536"/><path d="M15.86,17.35c-4.54,0-8.24-4-8.24-8.94A8.14,8.14,0,0,1,15.86,0,8.14,8.14,0,0,1,24.1,8.41C24.1,13.34,20.4,17.35,15.86,17.35Zm0-14.87A5.66,5.66,0,0,0,10.1,8.41c0,3.56,2.59,6.46,5.76,6.46s5.76-2.9,5.76-6.46A5.72,5.72,0,0,0,15.86,2.48Z" style="fill:#006536"/></g></g></svg>