<svg xmlns="http://www.w3.org/2000/svg" viewBox="0 0 31.72 31.72"><g id="레이어_2" data-name="레이어 2"><g id="레이어_1-2" data-name="레이어 1"><path d="M19,29.24H3.76a1.24,1.24,0,0,1-1-.47,1.28,1.28,0,0,1-.26-1.08,13.67,13.67,0,0,1,13-10.84h.66a13.36,13.36,0,0,1,5.52,1.31,1.24,1.24,0,1,0,1.06-2.24,16.43,16.43,0,0,0-1.86-.75,8.44,8.44,0,1,0-10.09,0,16.16,16.16,0,0,0-10.74,12,3.79,3.79,0,0,0,.77,3.16,3.71,3.71,0,0,0,2.91,1.38H19a1.24,1.24,0,0,0,0-2.48ZM9.91,8.43a6,6,0,1,1,6.25,5.94h-.6A6,6,0,0,1,9.91,8.43Z" style="fill:#006536"/><path d="M30.48,24.6H27.07V21.19a1.24,1.24,0,1,0-2.47,0V24.6H21.19a1.24,1.24,0,1,0,0,2.47H24.6v3.41a1.24,1.24,0,1,0,2.47,0V27.07h3.41a1.24,1.24,0,1,0,0-2.47Z" style="fill:#006536"/></g></g></svg>