<svg xmlns="http://www.w3.org/2000/svg" viewBox="0 0 31.72 32.27"><g id="레이어_2" data-name="레이어 2"><g id="레이어_1-2" data-name="레이어 1"><path d="M19.1,15.62a6.67,6.67,0,0,0-.16-1.49,7.44,7.44,0,0,0,1.25.1A9.54,9.54,0,0,1,26.91,17,1.26,1.26,0,0,0,28.74,17h0a1.27,1.27,0,0,0,0-1.74,12.06,12.06,0,0,0-4-2.62A7.12,7.12,0,1,0,13.07,7.12a7.31,7.31,0,0,0,.16,1.49A7.11,7.11,0,0,0,7.45,21.1,12.08,12.08,0,0,0,0,30.87a1.25,1.25,0,0,0,1.25,1.4h0a1.27,1.27,0,0,0,1.26-1.12A9.55,9.55,0,0,1,12,22.74,7.12,7.12,0,0,0,19.1,15.62ZM20.19,2.53A4.59,4.59,0,1,1,15.6,7.12,4.6,4.6,0,0,1,20.19,2.53ZM12,20.21a4.59,4.59,0,1,1,4.59-4.59A4.6,4.6,0,0,1,12,20.21Z" style="fill:#006536"/><path d="M29.52,19.87l-7.68,8.55a.35.35,0,0,1-.51,0l-3.77-3.59a1.26,1.26,0,0,0-1.79,0h0a1.25,1.25,0,0,0,.05,1.78L20.35,31A1.86,1.86,0,0,0,23,30.9l8.39-9.35a1.26,1.26,0,0,0-.1-1.78h0A1.26,1.26,0,0,0,29.52,19.87Z" style="fill:#006536"/></g></g></svg>